<?xml version="1.0" encoding="utf-8"?>
<!-- Generator: Adobe Illustrator 17.0.0, SVG Export Plug-In . SVG Version: 6.00 Build 0)  -->
<!DOCTYPE svg PUBLIC "-//W3C//DTD SVG 1.1//EN" "http://www.w3.org/Graphics/SVG/1.1/DTD/svg11.dtd">
<svg version="1.1" id="Слой_1" xmlns="http://www.w3.org/2000/svg" xmlns:xlink="http://www.w3.org/1999/xlink" x="0px" y="0px"
	 width="400px" height="400px" viewBox="0 0 400 400" enable-background="new 0 0 400 400" xml:space="preserve">
<g>
	<path fill="#FECB4C" d="M400.045,86.148c0,60.792,0,121.583,0,182.375c-133.363,0-266.727,0-400.09,0c0-60.903,0-121.805,0-182.708
		c1.538-3.736,4.307-5.056,8.338-5.054c127.664,0.064,255.328,0.064,382.991,0.005C395.517,80.764,398.542,82.043,400.045,86.148z"
		/>
	<path fill="#2C1367" d="M400.045,321.868c-1.109,1.884-2.279,3.694-4.439,4.58c-0.62,0.254-1.205,0.488-1.886,0.421
		c-0.33-0.032-0.666,0-0.999,0c-128.484,0-256.968,0-385.452,0c-3.859,0-5.696-1.255-7.069-4.802
		c-0.033-0.085-0.161-0.133-0.245-0.199c0-17.782,0-35.564,0-53.345c133.363,0,266.727,0,400.09,0
		C400.045,286.304,400.045,304.086,400.045,321.868z"/>
</g>
<g>
	<path fill="#2C1367" stroke="#FFFFFF" stroke-width="3.2919" stroke-miterlimit="10" d="M254.555,130.709
		c13.821,0.054,27.643,0.133,41.464,0.149c6.134,0.007,4.812-0.007,3.912,4.882c-0.636,3.456-1.562,6.867-2.513,10.255
		c-1.324,4.718-3.819,6.616-8.74,6.678c-5.588,0.071-11.178,0.004-16.767,0.038c-6.503,0.039-10.22,2.54-11.805,8.862
		c-3.351,13.371-6.479,26.801-9.464,40.259c-1.274,5.745,1.987,9.615,7.902,9.735c7.057,0.143,14.119,0.053,21.179,0.039
		c3.646-0.007,6.512-1.801,9.136-4.108c-1.081,6.864-2.567,13.644-4.673,20.262c-1.29,4.053-4.663,6.007-8.567,6.113
		c-16.376,0.442-32.805,1.341-49.119-0.42c-14.024-1.514-19.098-10.145-17.461-24.445c1.519-13.267,5.424-26.07,8.22-39.089
		c1.273-5.929,2.261-11.962,4.517-17.628c4.359-10.953,11.591-18.836,23.693-21.034
		C248.433,130.716,251.523,130.872,254.555,130.709z"/>
	<path fill="#2C1367" stroke="#FFFFFF" stroke-width="3.2919" stroke-miterlimit="10" d="M122.327,233.51
		c-1.157,0.954-1.974,0.761-2.737,0.762c-11.582,0.01-23.165,0.011-34.747-0.005c-1.274-0.002-2.548-0.112-3.822-0.183
		c-2.799-0.156-4.349-1.59-4.443-4.436c-0.158-4.806-0.375-9.612-0.381-14.418c-0.002-1.849-0.41-2.76-2.421-2.467
		c-0.865,0.126-1.769-0.04-2.646,0.035c-1.36,0.116-1.721-0.471-1.468-1.728c1.007-4.992,2.008-9.985,2.955-14.988
		c0.272-1.438,1.325-1.333,2.251-1.201c2.531,0.361,2.79-0.937,2.323-2.912c-0.18-0.762-0.21-1.563-0.433-2.31
		c-2.908-9.766,0.695-19,2.397-28.359c1.717-9.439,3.822-18.807,5.636-28.229c0.317-1.645,0.792-2.308,2.58-2.259
		c4.806,0.132,9.619-0.007,14.427,0.066c4.309,0.065,6.518,2.077,6.873,6.395c1.381,16.814,2.697,33.633,4.027,50.451
		c1.012,12.809,2.011,25.619,3.009,38.429C116.015,230.104,118.829,231.972,122.327,233.51z"/>
	<path fill="#2C1367" stroke="#FFFFFF" stroke-width="3.2919" stroke-miterlimit="10" d="M175.692,154.056
		c4.234,0.794,5.087,2.459,4.05,7.567c-0.214,1.053-1.705,2.575,0.258,3.166c1.507,0.453,3.352,0.469,4.206-1.589
		c3.585-8.636,10.231-11.284,19.169-10.335c5.044,0.535,5.084,0.095,3.907,4.994c-0.869,3.616-1.714,7.238-2.576,10.855
		c-1.302,5.46-3.974,7.807-9.573,8.138c-3.129,0.185-6.277,0.022-9.41,0.157c-6.735,0.289-9.109,2.699-10.292,8.226
		c-2.743,12.82-5.939,25.542-8.895,38.317c-0.787,3.399-0.766,6.67,2.517,8.983c0.378,0.266,0.922,0.483,0.764,1.108
		c-0.201,0.794-0.891,0.628-1.437,0.628c-11.966,0-23.933,0.044-35.898-0.064c-3.144-0.029-4.092-1.379-3.345-4.686
		c2.995-13.269,6.099-26.513,9.176-39.763c1.97-8.483,3.975-16.958,5.943-25.442c0.827-3.567,0.55-6.83-2.769-9.157
		c0.913-1.109,2.176-0.656,3.287-0.66c9.267-0.036,18.534-0.009,27.801-0.034C173.617,154.463,174.73,154.775,175.692,154.056z"/>
	<path fill="#2C1367" stroke="#FFFFFF" stroke-width="3.2919" stroke-miterlimit="10" d="M372.45,154.048
		c8.753,0.854,13.234,6.587,12.135,15.642c-0.769,6.332-2.607,12.447-4,18.649c-2.704,12.035-5.587,24.03-8.379,36.046
		c-1.247,5.366-0.784,6.547,3.663,9.455c-0.829,0.563-1.714,0.358-2.531,0.359c-10.106,0.018-20.213,0.013-30.319,0.01
		c-0.588,0-1.178-0.011-1.765-0.049c-4.199-0.273-5.47-1.808-4.656-5.85c2.204-10.942,4.459-21.873,6.702-32.806
		c1.023-4.989,2.095-9.968,3.091-14.962c1.134-5.684-0.651-7.828-6.435-7.831c-6.182-0.004-12.364,0.045-18.545-0.028
		c-5.186-0.061-6.493-1.769-5.284-6.839c0.862-3.615,1.865-7.197,2.806-10.793c1.15-0.747,2.445-0.569,3.708-0.569
		c15.562-0.003,31.124,0.004,46.686-0.017C370.371,154.463,371.489,154.782,372.45,154.048z"/>
	<path fill="#2C1367" stroke="#FFFFFF" stroke-width="3.2919" stroke-miterlimit="10" d="M60.691,194.569
		c4.52,0.508,4.539,0.512,3.712,4.624c-0.772,3.839-1.686,7.651-2.346,11.508c-0.303,1.768-1.147,2.41-2.763,2.067
		c-3.43-0.728-5.136,0.947-6.28,3.972c-0.896,2.367-2.229,4.569-3.373,6.842c-2.769,5.505-2.581,6.426,2.099,10.063
		c-0.563,1-1.535,0.616-2.32,0.619c-9.615,0.027-19.23,0.017-28.845,0.011c-0.587,0-1.178-0.028-1.762-0.088
		c-4.204-0.433-5.497-2.656-3.585-6.445c3.838-7.605,7.763-15.167,11.667-22.739c10.768-20.887,21.546-41.769,32.315-62.655
		c2.535-4.916,2.305-6.223-1.683-9.91c-0.334-0.309-0.93-0.47-0.708-1.109c0.217-0.625,0.797-0.46,1.243-0.459
		c6.475,0.014,12.95,0.065,19.426,0.066c2.391,0,1.147,1.612,0.981,2.425c-1.988,9.785-4.069,19.551-6.125,29.322
		c-0.504,2.395-1.125,4.772-1.489,7.188c-0.975,6.465-3.027,12.505-6.535,18.057C63.025,189.974,61.984,192.183,60.691,194.569z"/>
	<path fill="#2C1367" stroke="#FFFFFF" stroke-width="3.2919" stroke-miterlimit="10" d="M327.535,183.763
		c3.336,0,6.674,0.077,10.006-0.029c1.957-0.062,3.027,0.171,2.124,2.534c-0.623,1.631-0.915,3.4-1.246,5.128
		c-0.512,2.678-0.784,5.352-4.39,5.852c-1.316,0.182-2.207,1.563-2.852,2.814c-2.055,3.987-2.817,8.346-3.265,12.716
		c-0.275,2.687,1.298,4.089,4.428,4.262c1.684,0.093,1.881,0.58,1.614,2.12c-1.661,9.598-6.811,14.303-16.609,14.968
		c-4.408,0.299-8.82,0.371-13.226-0.047c-7.317-0.693-11.326-4.257-11.529-11.584c-0.295-10.662,1.931-20.879,8.122-29.828
		c3.798-5.49,9.324-8.302,15.939-8.732c3.614-0.235,7.255-0.042,10.884-0.042C327.535,183.851,327.535,183.807,327.535,183.763z"/>
</g>
<g>
	<path fill="#FECB4C" d="M40.967,310.936l-3.461,6.515l-3.461-1.765c-1.825,1.236-4.049,1.855-6.673,1.855
		c-3.348,0-6.01-0.769-7.986-2.307c-1.735-1.357-2.745-3.114-3.031-5.271c-0.151-1.162-0.226-2.896-0.226-5.203v-24.613h9.524
		v29.046c0,1.433,0.754,2.149,2.262,2.149c0.603,0,1.138-0.212,1.606-0.633c0.467-0.422,0.701-0.965,0.701-1.629
		c0-1.388-0.611-2.232-1.832-2.534v-26.4h9.524v24.477c0,2.232-0.053,3.868-0.158,4.909L40.967,310.936z"/>
	<path fill="#FECB4C" d="M68.282,302.883h-9.524V287.5c0-1.282-0.438-1.923-1.312-1.923c-0.95,0-1.425,0.648-1.425,1.945v29.25
		h-9.524v-24.477c0-2.775,0.09-4.728,0.271-5.859c0.301-1.886,1.244-3.469,2.828-4.751c1.885-1.538,4.366-2.307,7.443-2.307
		c3.348,0,6.009,0.769,7.986,2.307c1.734,1.357,2.745,3.114,3.031,5.271c0.15,1.162,0.226,2.896,0.226,5.203V302.883z"/>
	<path fill="#FECB4C" d="M101.024,287.477h-3.167v17.147c0,2.775-0.09,4.728-0.271,5.859c-0.302,1.886-1.244,3.469-2.828,4.751
		c-1.886,1.538-4.366,2.307-7.443,2.307c-3.348,0-6.01-0.769-7.986-2.307c-1.735-1.357-2.745-3.114-3.031-5.271
		c-0.151-1.162-0.226-2.896-0.226-5.203v-24.613h9.524v29.273c0,1.282,0.437,1.923,1.312,1.923c0.95,0,1.425-0.648,1.425-1.945
		v-29.25h12.691V287.477z"/>
	<path fill="#FECB4C" d="M129.311,294.06h-12.713v15.36c0,1.282,0.437,1.923,1.312,1.923c0.95,0,1.425-0.648,1.425-1.945v-11.153
		h9.524v6.379c0,2.775-0.09,4.728-0.271,5.859c-0.302,1.886-1.244,3.469-2.828,4.751c-1.886,1.538-4.366,2.307-7.443,2.307
		c-3.348,0-6.01-0.769-7.986-2.307c-1.735-1.357-2.745-3.114-3.031-5.271c-0.151-1.162-0.226-2.896-0.226-5.203v-24.613h9.524v6.583
		h12.713V294.06z"/>
	<path fill="#FECB4C" d="M159.906,304.76c0,2.307-0.076,4.041-0.226,5.203c-0.287,2.157-1.297,3.914-3.031,5.271
		c-1.976,1.538-4.637,2.307-7.986,2.307c-3.077,0-5.558-0.769-7.443-2.307c-1.584-1.282-2.526-2.865-2.828-4.751
		c-0.196-1.236-0.294-3.19-0.294-5.859v-17.147h-3.19v-7.329h12.736v29.25c0,1.297,0.475,1.945,1.425,1.945
		c0.874,0,1.312-0.641,1.312-1.923v-15.383h9.524V304.76z"/>
	<path fill="#FECB4C" d="M189.459,308.018h-9.524v-13.731c0-1.282-0.438-1.923-1.312-1.923c-0.95,0-1.425,0.648-1.425,1.945v22.463
		h-9.524v-36.625h9.524v6.176c0.498-0.15,0.995-0.226,1.493-0.226c3.212,0,5.761,0.784,7.646,2.353
		c1.643,1.357,2.609,3.122,2.896,5.293c0.15,1.162,0.226,2.896,0.226,5.203V308.018z"/>
	<path fill="#FECB4C" d="M222.09,310.936l-3.461,6.515l-3.461-1.765c-1.826,1.236-4.049,1.855-6.673,1.855
		c-3.348,0-6.011-0.769-7.986-2.307c-1.735-1.357-2.746-3.114-3.032-5.271c-0.151-1.162-0.226-2.896-0.226-5.203v-24.613h9.524
		v29.046c0,1.433,0.753,2.149,2.262,2.149c0.602,0,1.138-0.212,1.606-0.633c0.466-0.422,0.701-0.965,0.701-1.629
		c0-1.388-0.611-2.232-1.832-2.534v-26.4h9.524v24.477c0,2.232-0.054,3.868-0.158,4.909L222.09,310.936z"/>
	<path fill="#FECB4C" d="M250.829,304.76c0,2.307-0.076,4.041-0.226,5.203c-0.286,2.157-1.297,3.914-3.031,5.271
		c-1.976,1.538-4.637,2.307-7.986,2.307c-3.077,0-5.557-0.769-7.443-2.307c-1.584-1.282-2.526-2.865-2.828-4.751
		c-0.196-1.236-0.294-3.19-0.294-5.859v-17.147h-3.19v-7.329h12.736v29.25c0,1.297,0.475,1.945,1.425,1.945
		c0.874,0,1.312-0.641,1.312-1.923v-15.383h9.524V304.76z"/>
	<path fill="#FECB4C" d="M294.462,314.081h-12.555v2.692h-9.524v-2.715h-3.099v-7.329h3.077v-14.433
		c0-2.669,0.098-4.623,0.294-5.859c0.302-1.886,1.244-3.469,2.828-4.751c1.886-1.538,4.366-2.307,7.443-2.307
		c3.514,0,6.281,0.845,8.302,2.534c1.96,1.643,2.941,3.854,2.941,6.628v3.506c0,3.122-0.882,5.655-2.647,7.601
		c-1.689,1.84-3.974,2.949-6.854,3.325c-1.131,0.15-2.051,0.098-2.76-0.158v3.914h12.555V314.081z M284.644,293.63V287.5
		c0-1.282-0.438-1.923-1.312-1.923c-0.95,0-1.425,0.648-1.425,1.945v6.085c0,1.417,0.415,2.126,1.244,2.126
		C284.146,295.734,284.644,295.033,284.644,293.63z"/>
	<path fill="#FECB4C" d="M326.889,310.936l-3.461,6.515l-3.461-1.765c-1.824,1.236-4.049,1.855-6.673,1.855
		c-3.348,0-6.009-0.769-7.986-2.307c-1.734-1.357-2.745-3.114-3.031-5.271c-0.15-1.162-0.226-2.896-0.226-5.203v-24.613h9.524
		v29.046c0,1.433,0.754,2.149,2.262,2.149c0.603,0,1.139-0.212,1.606-0.633c0.467-0.422,0.701-0.965,0.701-1.629
		c0-1.388-0.611-2.232-1.832-2.534v-26.4h9.524v24.477c0,2.232-0.053,3.868-0.158,4.909L326.889,310.936z"/>
	<path fill="#FECB4C" d="M354.202,302.883h-9.524V287.5c0-1.282-0.438-1.923-1.312-1.923c-0.95,0-1.425,0.648-1.425,1.945v29.25
		h-9.524v-24.477c0-2.775,0.09-4.728,0.271-5.859c0.302-1.886,1.244-3.469,2.828-4.751c1.886-1.538,4.366-2.307,7.443-2.307
		c3.348,0,6.009,0.769,7.986,2.307c1.734,1.357,2.745,3.114,3.031,5.271c0.15,1.162,0.226,2.896,0.226,5.203V302.883z"/>
	<path fill="#FECB4C" d="M386.945,310.212h-3.212v6.56h-9.524v-29.25c0-1.297-0.475-1.945-1.425-1.945
		c-0.874,0-1.312,0.641-1.312,1.923v15.383h-9.524V292.16c0-2.307,0.076-4.041,0.226-5.203c0.286-2.157,1.297-3.914,3.031-5.271
		c1.976-1.538,4.637-2.307,7.986-2.307c3.077,0,5.557,0.769,7.443,2.307c1.584,1.282,2.526,2.865,2.828,4.751
		c0.196,1.236,0.294,3.19,0.294,5.859v10.587h3.19V310.212z"/>
</g>
</svg>
