<?xml version="1.0" encoding="utf-8"?>
<!-- Generator: Adobe Illustrator 17.0.0, SVG Export Plug-In . SVG Version: 6.00 Build 0)  -->
<!DOCTYPE svg PUBLIC "-//W3C//DTD SVG 1.1//EN" "http://www.w3.org/Graphics/SVG/1.1/DTD/svg11.dtd">
<svg version="1.1" id="Слой_1" xmlns="http://www.w3.org/2000/svg" xmlns:xlink="http://www.w3.org/1999/xlink" x="0px" y="0px"
	 width="400px" height="400px" viewBox="0 0 400 400" enable-background="new 0 0 400 400" xml:space="preserve">
<g>
	<path fill="#2C1367" stroke="#FFFFFF" stroke-width="3.5321" stroke-miterlimit="10" d="M259.502,132.876
		c14.83,0.058,29.66,0.143,44.49,0.16c6.581,0.008,5.163-0.007,4.198,5.238c-0.682,3.708-1.676,7.368-2.696,11.003
		c-1.421,5.063-4.098,7.099-9.378,7.165c-5.996,0.076-11.994,0.004-17.991,0.04c-6.977,0.042-10.966,2.725-12.666,9.509
		c-3.596,14.346-6.952,28.757-10.154,43.197c-1.367,6.164,2.132,10.317,8.478,10.445c7.572,0.154,15.15,0.057,22.725,0.042
		c3.912-0.008,6.987-1.932,9.803-4.408c-1.16,7.365-2.755,14.64-5.014,21.741c-1.384,4.349-5.004,6.446-9.192,6.559
		c-17.571,0.474-35.199,1.439-52.704-0.451c-15.048-1.625-20.492-10.885-18.735-26.229c1.63-14.235,5.819-27.973,8.82-41.942
		c1.366-6.362,2.426-12.834,4.846-18.914c4.678-11.752,12.437-20.211,25.422-22.569
		C252.933,132.884,256.249,133.051,259.502,132.876z"/>
	<path fill="#2C1367" stroke="#FFFFFF" stroke-width="3.5321" stroke-miterlimit="10" d="M117.624,243.179
		c-1.241,1.024-2.118,0.817-2.937,0.818c-12.428,0.011-24.855,0.011-37.283-0.006c-1.367-0.002-2.734-0.121-4.101-0.197
		c-3.004-0.167-4.667-1.706-4.767-4.76c-0.169-5.156-0.402-10.313-0.409-15.471c-0.003-1.984-0.44-2.961-2.598-2.647
		c-0.928,0.135-1.898-0.043-2.839,0.037c-1.459,0.124-1.847-0.506-1.575-1.855c1.08-5.356,2.154-10.713,3.171-16.082
		c0.292-1.543,1.422-1.43,2.415-1.288c2.716,0.388,2.994-1.005,2.492-3.124c-0.193-0.817-0.226-1.677-0.464-2.478
		c-3.12-10.478,0.745-20.387,2.572-30.429c1.842-10.128,4.101-20.179,6.048-30.289c0.34-1.766,0.85-2.477,2.768-2.424
		c5.157,0.142,10.32-0.007,15.48,0.071c4.624,0.07,6.994,2.229,7.374,6.862c1.482,18.041,2.894,36.087,4.321,54.133
		c1.086,13.744,2.158,27.489,3.229,41.234C110.852,239.524,113.87,241.529,117.624,243.179z"/>
	<path fill="#2C1367" stroke="#FFFFFF" stroke-width="3.5321" stroke-miterlimit="10" d="M174.883,157.927
		c4.543,0.852,5.459,2.639,4.345,8.119c-0.23,1.13-1.83,2.763,0.277,3.397c1.617,0.486,3.596,0.503,4.513-1.705
		c3.846-9.267,10.977-12.108,20.567-11.09c5.412,0.574,5.455,0.102,4.192,5.358c-0.932,3.88-1.839,7.766-2.764,11.648
		c-1.397,5.859-4.264,8.377-10.272,8.732c-3.357,0.198-6.735,0.024-10.097,0.168c-7.227,0.31-9.774,2.896-11.043,8.827
		c-2.943,13.755-6.372,27.406-9.545,41.113c-0.844,3.647-0.822,7.157,2.701,9.639c0.405,0.286,0.99,0.518,0.82,1.189
		c-0.216,0.852-0.956,0.674-1.541,0.674c-12.839,0-25.679,0.048-38.518-0.069c-3.373-0.031-4.39-1.48-3.59-5.028
		c3.213-14.237,6.544-28.448,9.846-42.665c2.114-9.102,4.266-18.195,6.377-27.298c0.888-3.827,0.59-7.328-2.971-9.825
		c0.979-1.19,2.334-0.703,3.526-0.708c9.943-0.038,19.887-0.01,29.83-0.036C172.658,158.363,173.852,158.698,174.883,157.927z"/>
	<path fill="#2C1367" stroke="#FFFFFF" stroke-width="3.5321" stroke-miterlimit="10" d="M386,157.918
		c9.391,0.916,14.2,7.068,13.021,16.784c-0.825,6.794-2.797,13.355-4.292,20.01c-2.901,12.914-5.994,25.784-8.99,38.676
		c-1.338,5.758-0.841,7.024,3.93,10.145c-0.889,0.604-1.839,0.384-2.715,0.385c-10.844,0.02-21.688,0.014-32.532,0.011
		c-0.631,0-1.264-0.012-1.894-0.053c-4.505-0.293-5.87-1.94-4.996-6.277c2.364-11.74,4.784-23.469,7.191-35.2
		c1.098-5.353,2.248-10.695,3.316-16.054c1.216-6.099-0.699-8.399-6.905-8.403c-6.633-0.004-13.266,0.048-19.898-0.03
		c-5.565-0.066-6.967-1.898-5.67-7.338c0.925-3.879,2.001-7.722,3.01-11.581c1.234-0.801,2.624-0.61,3.979-0.61
		c16.698-0.004,33.395,0.005,50.093-0.018C383.77,158.364,384.97,158.706,386,157.918z"/>
	<path fill="#2C1367" stroke="#FFFFFF" stroke-width="3.5321" stroke-miterlimit="10" d="M51.49,201.396
		c4.849,0.545,4.87,0.549,3.983,4.962c-0.828,4.119-1.809,8.21-2.518,12.348c-0.325,1.897-1.231,2.586-2.965,2.218
		c-3.68-0.781-5.51,1.016-6.738,4.262c-0.961,2.54-2.392,4.903-3.619,7.342c-2.971,5.907-2.77,6.895,2.252,10.797
		c-0.604,1.073-1.647,0.661-2.489,0.664c-10.317,0.029-20.633,0.019-30.95,0.012c-0.63,0-1.264-0.03-1.891-0.095
		c-4.511-0.465-5.899-2.849-3.847-6.915c4.118-8.16,8.329-16.274,12.518-24.399c11.554-22.411,23.118-44.817,34.673-67.227
		c2.72-5.274,2.473-6.677-1.806-10.634c-0.358-0.331-0.997-0.505-0.759-1.19c0.233-0.67,0.855-0.493,1.334-0.492
		c6.948,0.015,13.896,0.07,20.843,0.07c2.566,0,1.23,1.73,1.053,2.602c-2.133,10.499-4.366,20.978-6.572,31.462
		c-0.541,2.569-1.207,5.12-1.597,7.712c-1.046,6.937-3.248,13.418-7.012,19.374C53.995,196.466,52.877,198.836,51.49,201.396z"/>
	<path fill="#2C1367" stroke="#FFFFFF" stroke-width="3.5321" stroke-miterlimit="10" d="M337.808,189.802
		c3.579,0,7.161,0.083,10.737-0.031c2.1-0.067,3.248,0.183,2.279,2.719c-0.669,1.75-0.982,3.648-1.336,5.502
		c-0.549,2.873-0.841,5.743-4.711,6.279c-1.412,0.196-2.368,1.677-3.06,3.02c-2.205,4.278-3.023,8.955-3.503,13.644
		c-0.295,2.883,1.393,4.387,4.751,4.573c1.807,0.1,2.018,0.622,1.732,2.275c-1.782,10.298-7.308,15.347-17.821,16.06
		c-4.73,0.321-9.464,0.398-14.191-0.05c-7.851-0.744-12.153-4.568-12.37-12.429c-0.317-11.44,2.072-22.402,8.714-32.004
		c4.075-5.891,10.004-8.908,17.102-9.369c3.877-0.252,7.784-0.045,11.678-0.045C337.808,189.897,337.808,189.849,337.808,189.802z"
		/>
</g>
</svg>
