<?xml version="1.0" ?><!DOCTYPE svg  PUBLIC '-//W3C//DTD SVG 1.1//EN'  'http://www.w3.org/Graphics/SVG/1.1/DTD/svg11.dtd'><svg enable-background="new -0.8 -0.6 25 26" height="26px" version="1.1" viewBox="-0.8 -0.6 25 26" width="25px" xml:space="preserve" xmlns="http://www.w3.org/2000/svg" xmlns:xlink="http://www.w3.org/1999/xlink"><defs/><path clip-rule="evenodd" d="M22,24.6h-9v-8h11v6C24,23.7,23.1,24.6,22,24.6z M13,9.5h-1v6.1H0  v-6c0-1.1,0.9-2,2-2h2.9c-2-2.1-2.4-5-0.8-6.6c1.6-1.6,4.6-1.2,6.7,0.9c0.5,0.5,0.8,1,1.1,1.5c0.3-0.5,0.7-1.1,1.1-1.5  c2.1-2.1,5.1-2.5,6.7-0.9c1.6,1.6,1.2,4.5-0.8,6.6H22c1.1,0,2,0.9,2,2v6H13V9.5z M9.4,3.3c-1-1-2.5-1.2-3.3-0.4  C5.3,3.7,5.5,5.2,6.5,6.2c1,1,2.5,1.2,3.3,0.4C10.6,5.9,10.4,4.4,9.4,3.3z M17.9,2.9c-0.8-0.8-2.3-0.6-3.3,0.4s-1.2,2.5-0.4,3.3  c0.8,0.8,2.3,0.6,3.3-0.4C18.5,5.2,18.7,3.7,17.9,2.9z M11.9,24.6H2c-1.1,0-2-0.9-2-2v-6h11.9V24.6z" fill="#0D0D0D" fill-rule="evenodd"/></svg>