<?xml version="1.0" encoding="utf-8"?>
<!-- Generator: Adobe Illustrator 17.0.0, SVG Export Plug-In . SVG Version: 6.00 Build 0)  -->
<!DOCTYPE svg PUBLIC "-//W3C//DTD SVG 1.1//EN" "http://www.w3.org/Graphics/SVG/1.1/DTD/svg11.dtd">
<svg version="1.1" id="Слой_1" xmlns="http://www.w3.org/2000/svg" xmlns:xlink="http://www.w3.org/1999/xlink" x="0px" y="0px"
	 width="400px" height="400px" viewBox="0 0 400 400" enable-background="new 0 0 400 400" xml:space="preserve">
<g>
	<path fill="#1751A3" d="M218.901,223.394c-58.462,0-116.925,0.004-175.387-0.005c-7.809-0.001-15.419-1.074-22.589-4.398
		C8.402,213.186,1.738,203.239,0.613,189.64c-0.913-11.032,1.618-21.142,9.479-29.372c6.812-7.132,15.498-10.429,25.086-11.706
		c3.161-0.421,6.34-0.443,9.52-0.443c24.189,0.004,48.379,0.003,72.568,0.004c1.783,0,2.752,1.651,1.952,3.304
		c-0.154,0.318-0.397,0.414-0.712,0.416c-0.42,0.003-0.84,0-1.26,0c-24.73,0-49.459-0.018-74.189,0.012
		c-7.518,0.009-14.852,1.122-21.588,4.675c-12.597,6.644-17.673,17.516-17.167,31.339c0.643,17.562,12.391,28.15,28.836,30.915
		c3.502,0.589,7.027,0.777,10.576,0.777c116.505-0.007,233.01-0.004,349.514-0.001c2.53,0,2.531-0.001,2.53-2.609
		c-0.002-13.685,0.033-27.371-0.018-41.056c-0.042-11.134-6.841-20.03-17.557-23.14c-2.263-0.657-4.581-0.9-6.928-0.9
		c-70.827-0.005-141.654-0.006-212.482-0.026c-0.682,0-1.743,0.411-1.985-0.276c-0.319-0.902-0.122-1.999-0.08-3.01
		c0.014-0.333,0.368-0.421,0.691-0.418c0.36,0.004,0.72-0.002,1.08-0.002c71.007,0.002,142.015,0.011,213.022-0.007
		c6.684-0.002,12.639,2.005,17.784,6.218c6.691,5.478,10.248,12.527,10.241,21.272c-0.012,15.186-0.034,30.372,0.039,45.557
		c0.008,1.76-0.334,2.28-2.214,2.278C337.867,223.383,278.384,223.394,218.901,223.394z"/>
	<path fill="#0F4EA2" d="M268.348,159.447c5.32,0,10.102,0,14.884,0c5.702,0,11.404,0.025,17.106-0.021
		c1.143-0.009,1.599,0.274,1.533,1.503c-0.104,1.944-0.028,3.898-0.028,6.256c3.648-3.662,7.685-5.929,12.19-7.315
		c7.115-2.189,14.25-2.54,21.342,0.148c3.329,1.262,6.174,3.235,8.193,6.187c0.778,1.137,1.111,0.795,1.951,0.108
		c9.522-7.781,20.202-10.286,31.947-6.235c7.193,2.481,10.884,8.089,11.98,15.499c0.451,3.045,0.289,6.11,0.294,9.168
		c0.016,9.003-0.027,18.007,0.039,27.009c0.011,1.436-0.257,1.949-1.826,1.93c-7.262-0.088-14.525-0.076-21.787-0.002
		c-1.375,0.014-1.69-0.379-1.682-1.711c0.054-9.363,0.022-18.727,0.016-28.09c-0.003-4.691-1.579-7.111-5.262-8.094
		c-4.447-1.187-8.821,0.511-10.884,4.218c-1.383,2.486-1.778,5.189-1.779,7.982c-0.001,7.983-0.04,15.966,0.038,23.948
		c0.014,1.457-0.427,1.756-1.796,1.744c-7.262-0.066-14.525-0.064-21.787,0c-1.316,0.012-1.723-0.283-1.713-1.669
		c0.066-9.003,0.032-18.006,0.03-27.01c0-0.48,0.003-0.96-0.007-1.44c-0.09-4.393-1.493-6.782-4.539-7.734
		c-4.231-1.322-8.469-0.084-10.799,3.185c-1.97,2.764-2.443,5.935-2.442,9.229c0.001,7.863-0.051,15.726,0.033,23.588
		c0.017,1.56-0.477,1.868-1.919,1.854c-7.142-0.069-14.285-0.068-21.427,0c-1.381,0.013-1.811-0.308-1.802-1.759
		c0.066-10.924,0.03-21.848,0.043-32.772c0.007-6.17-1.735-11.692-5.929-16.333C271.47,161.61,270.15,160.684,268.348,159.447z"/>
	<path fill="#104EA2" d="M249.885,207.202c-4.156,3.18-8.544,4.855-13.167,5.911c-9.068,2.072-18.162,2.68-27.169-0.246
		c-4.92-1.598-9.01-4.31-10.603-9.617c-2.096-6.982,1.139-13.678,8.209-17.231c5.406-2.717,11.282-3.531,17.17-4.313
		c7.481-0.994,15.01-1.619,22.431-3.086c1.745-0.345,1.822-1.146,1.438-2.459c-1.033-3.531-3.801-4.997-7.074-5.56
		c-3.685-0.635-7.296-0.188-10.638,1.669c-1.554,0.864-2.897,1.956-3.481,3.698c-0.285,0.852-0.742,1.066-1.585,0.99
		c-7.107-0.642-14.214-1.28-21.327-1.845c-1.337-0.106-1.43-0.605-1.069-1.705c2.165-6.607,6.983-10.433,13.296-12.613
		c7.849-2.71,16.013-2.823,24.185-2.661c6.428,0.127,12.821,0.625,18.98,2.675c6.349,2.113,11.396,5.614,13.074,12.587
		c0.394,1.637,0.551,3.302,0.549,4.992c-0.017,11.162-0.032,22.324,0.021,33.485c0.006,1.357-0.257,1.834-1.737,1.814
		c-6.6-0.089-13.202-0.076-19.802-0.01c-1.311,0.013-1.844-0.269-1.726-1.668C249.981,210.551,249.885,209.074,249.885,207.202z
		 M248.466,190.095c0-0.539-0.046-1.084,0.01-1.617c0.112-1.065-0.412-1.193-1.288-1.01c-4.275,0.891-8.572,1.683-12.825,2.665
		c-2.801,0.646-5.528,1.592-7.893,3.321c-1.513,1.106-2.332,2.558-2.006,4.489c0.315,1.859,1.551,2.907,3.234,3.5
		c0.616,0.217,1.267,0.362,1.914,0.461c3.577,0.548,7.047-0.055,10.444-1.122C245.79,198.98,248.029,196.077,248.466,190.095z"/>
	<path fill="#114EA2" d="M180.151,167.991c7.182-11.228,18.417-11.094,26.927-8.15c-2.817,1.866-5.042,4.136-6.76,6.896
		c-1.306,2.099-2.358,4.314-3.027,6.683c-0.308,1.092-0.799,1.386-1.909,1.252c-2.467-0.298-4.903-0.083-7.214,0.944
		c-4.098,1.82-5.287,5.476-5.869,9.454c-0.628,4.291-0.375,8.623-0.406,12.939c-0.033,4.74-0.037,9.48,0.016,14.22
		c0.012,1.076-0.253,1.451-1.394,1.444c-7.56-0.048-15.12-0.04-22.68-0.006c-1.007,0.005-1.341-0.283-1.339-1.321
		c0.029-17.22,0.029-34.441,0.006-51.661c-0.001-0.938,0.282-1.258,1.225-1.254c7.08,0.03,14.16,0.038,21.24,0.001
		c0.988-0.005,1.218,0.358,1.2,1.259C180.119,162.954,180.151,165.219,180.151,167.991z"/>
	<path fill="#0F4DA2" d="M125.054,207.469c-6.225,4.613-12.851,6.719-20.173,6.58c-13.998-0.265-24.256-9.949-26.014-23.75
		c-2.014-15.818,9.009-25.375,20.414-28.365c6.192-1.624,12.364-1.028,18.534,0.209c0.877,0.176,1.182,0.484,1.17,1.387
		c-0.047,3.6-0.064,7.203,0.008,10.802c0.022,1.117-0.441,1.242-1.372,1.247c-2.393,0.013-4.795-0.204-7.172,0.328
		c-6.57,1.47-10.576,7.907-8.831,14.175c1.004,3.606,3.524,5.717,6.948,6.609c5.014,1.306,9.863,0.659,14.404-1.975
		c1.483-0.86,2.136-1.932,2.126-3.759c-0.082-13.683-0.022-27.368-0.073-41.051c-0.005-1.371,0.26-1.831,1.736-1.814
		c7.381,0.086,14.764,0.084,22.146,0.014c1.294-0.012,1.587,0.354,1.585,1.582c-0.033,20.826-0.032,41.652-0.003,62.477
		c0.002,1.167-0.323,1.514-1.52,1.505c-7.502-0.055-15.004-0.049-22.506,0.001c-1.103,0.007-1.491-0.285-1.428-1.4
		C125.116,210.798,125.054,209.315,125.054,207.469z"/>
	<path fill="#2195D6" d="M42.718,214.128c-8.795-0.352-17.107-2.157-23.825-8.369c-6.658-6.157-8.853-13.968-8.141-22.791
		c0.551-6.83,3.055-12.764,8.155-17.441c4.496-4.124,9.913-6.462,15.866-7.421c8.789-1.415,17.444-1.022,25.609,2.982
		c8.831,4.331,13.677,11.468,14.718,21.247c0.672,6.311-0.217,12.323-3.485,17.813c-4.283,7.196-10.999,10.962-18.916,12.838
		C49.434,213.76,46.1,214.155,42.718,214.128z M34.862,180.686c-0.334,0.482-0.163,1.029-0.164,1.537
		c-0.014,6.053,0.03,12.106-0.024,18.158c-0.029,3.237,1.467,5.434,4.241,6.908c5.717,3.037,12.774-1.201,12.408-7.252
		c-0.31-5.135-0.064-10.304-0.064-15.458c0-1.295,0-2.59,0-3.958C44.557,183.692,40.887,183.49,34.862,180.686z M43.019,163.254
		c-4.369-0.022-8.154,3.068-8.328,6.799c-0.177,3.802,2.303,6.997,6.159,7.937c3.733,0.91,8.142-1.002,9.678-4.197
		C52.968,168.721,49.094,163.284,43.019,163.254z"/>
</g>
</svg>
