<?xml version="1.0" encoding="utf-8"?>
<!-- Generator: Adobe Illustrator 17.0.0, SVG Export Plug-In . SVG Version: 6.00 Build 0)  -->
<!DOCTYPE svg PUBLIC "-//W3C//DTD SVG 1.1//EN" "http://www.w3.org/Graphics/SVG/1.1/DTD/svg11.dtd">
<svg version="1.1" id="Слой_1" xmlns="http://www.w3.org/2000/svg" xmlns:xlink="http://www.w3.org/1999/xlink" x="0px" y="0px"
	 width="400px" height="400px" viewBox="0 0 400 400" enable-background="new 0 0 400 400" xml:space="preserve">
<g>
	<polygon fill="#F9B31E" points="280.073,327.053 286.251,326.892 292.348,326.448 298.324,325.682 304.26,324.632 310.034,323.299 
		315.728,321.683 321.3,319.786 326.751,317.646 332.081,315.223 337.25,312.599 342.257,309.691 347.143,306.582 351.827,303.23 
		356.35,299.677 360.711,295.922 364.87,291.924 368.867,287.765 372.623,283.404 376.176,278.882 379.528,274.198 382.637,269.312 
		385.544,264.305 388.169,259.136 390.592,253.806 392.732,248.355 394.63,242.782 396.245,237.089 397.577,231.314 
		398.627,225.379 399.394,219.402 399.838,213.305 400,207.127 399.838,200.989 399.394,194.932 398.627,188.956 397.577,183.101 
		396.245,177.327 394.63,171.674 392.732,166.101 390.592,160.69 388.169,155.401 385.544,150.232 382.637,145.265 379.528,140.379 
		376.176,135.695 372.623,131.213 368.867,126.852 364.87,122.693 360.711,118.736 356.35,114.981 351.827,111.427 347.143,108.076 
		342.257,104.966 337.25,102.1 332.081,99.475 326.751,97.052 321.3,94.912 315.728,93.014 310.034,91.399 304.26,90.066 
		298.324,89.017 292.348,88.249 286.251,87.805 280.073,87.644 273.935,87.805 267.837,88.249 261.861,89.017 255.966,90.066 
		250.192,91.399 244.498,93.014 238.966,94.912 233.515,97.052 228.225,99.475 223.097,102.1 218.09,104.966 213.244,108.076 
		208.56,111.427 204.038,114.981 199.717,118.736 195.558,122.693 191.601,126.852 187.845,131.213 184.292,135.695 
		180.981,140.379 177.872,145.265 175.005,150.232 172.34,155.401 169.957,160.69 167.817,166.101 165.96,171.674 164.345,177.327 
		163.013,183.101 161.962,188.956 161.195,194.932 160.751,200.989 160.589,207.127 160.751,213.305 161.195,219.402 
		161.962,225.379 163.013,231.314 164.345,237.089 165.96,242.782 167.817,248.355 169.957,253.806 172.34,259.136 175.005,264.305 
		177.872,269.312 180.981,274.198 184.292,278.882 187.845,283.404 191.601,287.765 195.558,291.924 199.717,295.922 
		204.038,299.677 208.56,303.23 213.244,306.582 218.09,309.691 223.097,312.599 228.225,315.223 233.515,317.646 238.966,319.786 
		244.498,321.683 250.192,323.299 255.966,324.632 261.861,325.682 267.837,326.448 273.935,326.892 	"/>
	<polygon fill="#E30520" points="119.927,327.053 126.065,326.892 132.162,326.448 138.138,325.682 144.034,324.632 
		149.808,323.299 155.501,321.683 161.033,319.786 166.485,317.646 171.774,315.223 176.903,312.599 181.91,309.691 
		186.755,306.582 191.439,303.23 195.962,299.677 200.282,295.922 204.441,291.924 208.399,287.765 212.154,283.404 
		215.707,278.882 219.019,274.198 222.128,269.312 224.995,264.305 227.66,259.136 230.042,253.806 232.182,248.355 234.04,242.782 
		235.655,237.089 236.987,231.314 238.037,225.379 238.805,219.402 239.249,213.305 239.41,207.127 239.249,200.989 
		238.805,194.932 238.037,188.956 236.987,183.101 235.655,177.327 234.04,171.674 232.182,166.101 230.042,160.69 227.66,155.401 
		224.995,150.232 222.128,145.265 219.019,140.379 215.707,135.695 212.154,131.213 208.399,126.852 204.441,122.693 
		200.282,118.736 195.962,114.981 191.439,111.427 186.755,108.076 181.91,104.966 176.903,102.1 171.774,99.475 166.485,97.052 
		161.033,94.912 155.501,93.014 149.808,91.399 144.034,90.066 138.138,89.017 132.162,88.249 126.065,87.805 119.927,87.644 
		113.749,87.805 107.652,88.249 101.675,89.017 95.74,90.066 89.965,91.399 84.272,93.014 78.699,94.912 73.248,97.052 
		67.918,99.475 62.749,102.1 57.742,104.966 52.856,108.076 48.172,111.427 43.65,114.981 39.289,118.736 35.13,122.693 
		31.132,126.852 27.377,131.213 23.823,135.695 20.472,140.379 17.363,145.265 14.455,150.232 11.831,155.401 9.408,160.69 
		7.268,166.101 5.37,171.674 3.755,177.327 2.422,183.101 1.372,188.956 0.605,194.932 0.161,200.989 0,207.127 0.161,213.305 
		0.605,219.402 1.372,225.379 2.422,231.314 3.755,237.089 5.37,242.782 7.268,248.355 9.408,253.806 11.831,259.136 
		14.455,264.305 17.363,269.312 20.472,274.198 23.823,278.882 27.377,283.404 31.132,287.765 35.13,291.924 39.289,295.922 
		43.65,299.677 48.172,303.23 52.856,306.582 57.742,309.691 62.749,312.599 67.918,315.223 73.248,317.646 78.699,319.786 
		84.272,321.683 89.965,323.299 95.74,324.632 101.675,325.682 107.652,326.448 113.749,326.892 	"/>
	<polygon fill="#F9B31E" points="185.988,133.555 249.586,133.555 249.586,127.054 191.48,127.054 	"/>
	<polygon fill="#F9B31E" points="176.458,148.011 249.586,148.011 249.586,141.51 180.294,141.51 	"/>
	<polygon fill="#F9B31E" points="169.352,162.427 249.586,162.427 249.586,155.925 172.179,155.925 	"/>
	<polygon fill="#F9B31E" points="164.466,176.882 249.586,176.882 249.586,170.381 166.485,170.381 	"/>
	<polygon fill="#F9B31E" points="167.292,246.739 249.788,246.739 249.788,240.238 165.273,240.238 	"/>
	<polygon fill="#F9B31E" points="173.39,261.195 249.788,261.195 249.788,254.694 170.361,254.694 	"/>
	<polygon fill="#F9B31E" points="181.95,275.611 249.788,275.611 249.788,269.11 177.872,269.11 	"/>
	<polygon fill="#F9B31E" points="193.741,290.067 249.788,290.067 249.788,283.525 188.047,283.525 	"/>
	<polygon fill="#F9B31E" points="161.599,191.298 249.586,191.298 249.586,184.797 162.85,184.797 	"/>
	<polygon fill="#F9B31E" points="215.223,232.324 248.778,232.324 248.778,225.823 216.434,225.823 	"/>
	<polygon fill="#F9B31E" points="217.888,217.908 248.778,217.908 248.778,211.367 219.099,211.367 	"/>
	<polygon fill="#F9B31E" points="159.378,211.367 168.1,211.367 168.1,217.908 159.782,217.908 	"/>
	<polygon fill="#FFFFFF" points="143.105,203.493 142.54,203.452 141.974,203.372 141.449,203.291 140.924,203.21 140.44,203.129 
		139.915,203.049 139.39,202.968 138.825,202.887 138.259,202.806 137.613,202.766 136.886,202.726 136.119,202.685 
		135.271,202.685 134.342,202.726 133.293,202.806 132.122,202.887 131.314,203.008 130.547,203.129 129.86,203.372 
		129.255,203.614 128.689,203.897 128.164,204.22 127.761,204.623 127.397,204.987 127.155,205.431 126.953,205.875 126.872,206.36 
		126.872,206.844 126.993,207.369 127.155,207.894 127.478,208.419 127.882,208.944 128.689,209.711 129.658,210.317 
		130.789,210.842 132,211.286 133.293,211.69 134.625,212.134 135.958,212.619 137.25,213.144 138.461,213.83 139.592,214.678 
		140.601,215.687 141.449,216.939 142.095,218.474 142.499,220.291 142.661,222.471 142.499,225.015 142.216,226.913 
		141.732,228.569 141.086,230.103 140.278,231.435 139.35,232.606 138.3,233.616 137.169,234.504 135.917,235.272 134.625,235.877 
		133.293,236.402 131.92,236.806 130.506,237.128 129.133,237.371 127.801,237.492 126.468,237.573 125.217,237.614 123.48,237.614 
		121.865,237.573 120.452,237.573 119.119,237.532 117.908,237.492 116.818,237.412 115.849,237.331 114.92,237.21 114.072,237.128 
		113.305,236.967 112.537,236.846 111.851,236.644 111.165,236.483 110.518,236.241 109.872,235.998 109.186,235.756 
		111.003,226.832 111.366,226.913 111.811,227.034 112.376,227.196 113.062,227.357 113.789,227.519 114.597,227.68 
		115.485,227.882 116.454,228.044 117.464,228.205 118.514,228.367 119.604,228.488 120.735,228.609 121.906,228.649 
		123.077,228.69 124.248,228.69 125.419,228.649 126.59,228.407 127.518,228.084 128.245,227.64 128.81,227.074 129.214,226.509 
		129.537,225.863 129.739,225.217 129.901,224.611 129.981,223.44 129.618,222.431 128.932,221.623 127.922,220.937 
		126.711,220.331 125.297,219.725 123.723,219.16 122.148,218.514 120.533,217.787 118.998,216.939 117.585,215.889 
		116.293,214.638 115.283,213.103 114.556,211.286 114.193,209.106 114.233,206.521 114.435,204.946 114.718,203.452 
		115.122,202.079 115.606,200.787 116.252,199.576 116.979,198.526 117.827,197.517 118.837,196.628 120.008,195.861 121.3,195.215 
		122.753,194.609 124.369,194.165 126.186,193.802 128.164,193.519 130.345,193.357 132.727,193.317 134.221,193.317 
		135.594,193.357 136.846,193.398 137.977,193.438 138.986,193.519 139.915,193.6 140.722,193.681 141.449,193.761 142.136,193.842 
		142.701,193.963 143.226,194.044 143.711,194.125 144.114,194.205 144.478,194.246 144.841,194.327 145.164,194.367 	"/>
	<g>
		<g>
			<polyline fill="none" stroke="#FFFFFF" stroke-width="0.1206" points="143.105,203.493 143.105,203.493 142.54,203.452 
				141.974,203.372 141.449,203.291 140.924,203.21 140.44,203.129 139.915,203.049 139.39,202.968 138.825,202.887 
				138.259,202.806 137.613,202.766 136.886,202.726 136.119,202.685 135.271,202.685 134.342,202.726 133.293,202.806 
				132.122,202.887 132.122,202.887 131.314,203.008 130.547,203.129 129.86,203.372 129.255,203.614 128.689,203.897 
				128.164,204.22 127.761,204.623 127.397,204.987 127.155,205.431 126.953,205.875 126.872,206.36 126.872,206.844 
				126.993,207.369 127.155,207.894 127.478,208.419 127.882,208.944 127.882,208.944 128.689,209.711 129.658,210.317 
				130.789,210.842 132,211.286 133.293,211.69 134.625,212.134 135.958,212.619 137.25,213.144 138.461,213.83 139.592,214.678 
				140.601,215.687 141.449,216.939 142.095,218.474 142.499,220.291 142.661,222.471 142.499,225.015 142.499,225.015 
				142.216,226.913 141.732,228.569 141.086,230.103 140.278,231.435 139.35,232.606 138.3,233.616 137.169,234.504 
				135.917,235.272 134.625,235.877 133.293,236.402 131.92,236.806 130.506,237.128 129.133,237.371 127.801,237.492 
				126.468,237.573 125.217,237.614 125.217,237.614 123.48,237.614 121.865,237.573 120.452,237.573 119.119,237.532 
				117.908,237.492 116.818,237.412 115.849,237.331 114.92,237.21 114.072,237.128 113.305,236.967 112.537,236.846 
				111.851,236.644 111.165,236.483 110.518,236.241 109.872,235.998 109.186,235.756 111.003,226.832 111.003,226.832 
				111.366,226.913 111.811,227.034 112.376,227.196 113.062,227.357 113.789,227.519 114.597,227.68 115.485,227.882 
				116.454,228.044 117.464,228.205 118.514,228.367 119.604,228.488 120.735,228.609 121.906,228.649 123.077,228.69 
				124.248,228.69 125.419,228.649 125.419,228.649 126.59,228.407 127.518,228.084 128.245,227.64 128.81,227.074 129.214,226.509 
				129.537,225.863 129.739,225.217 129.901,224.611 129.901,224.611 129.981,223.44 129.618,222.431 128.932,221.623 
				127.922,220.937 126.711,220.331 125.297,219.725 123.723,219.16 122.148,218.514 120.533,217.787 118.998,216.939 
				117.585,215.889 116.293,214.638 115.283,213.103 114.556,211.286 114.193,209.106 114.233,206.521 114.233,206.521 
				114.435,204.946 114.718,203.452 115.122,202.079 115.606,200.787 116.252,199.576 116.979,198.526 117.827,197.517 
				118.837,196.628 120.008,195.861 121.3,195.215 122.753,194.609 124.369,194.165 126.186,193.802 128.164,193.519 
				130.345,193.357 132.727,193.317 132.727,193.317 134.221,193.317 135.594,193.357 136.846,193.398 137.977,193.438 
				138.986,193.519 139.915,193.6 140.722,193.681 141.449,193.761 142.136,193.842 142.701,193.963 143.226,194.044 
				143.711,194.125 144.114,194.205 144.478,194.246 144.841,194.327 145.164,194.367 143.105,203.493 			"/>
		</g>
	</g>
	<polygon fill="#FFFFFF" points="152.675,184.393 163.86,184.393 162.204,194.165 168.948,194.165 167.494,203.291 160.387,203.089 
		156.511,225.621 156.47,226.428 156.672,227.115 157.077,227.64 157.601,228.084 158.328,228.367 159.136,228.609 160.024,228.77 
		160.993,228.851 161.881,228.811 162.689,228.73 163.416,228.609 164.062,228.447 164.587,228.286 164.95,228.165 165.192,228.084 
		165.273,228.044 163.86,235.554 163.577,235.756 163.295,235.918 163.013,236.079 162.729,236.241 162.447,236.362 
		162.124,236.483 161.76,236.604 161.397,236.725 160.993,236.846 160.589,236.927 160.105,237.008 159.621,237.089 
		159.095,237.169 158.489,237.25 157.843,237.331 157.157,237.412 154.088,237.412 152.473,237.291 151.06,237.128 149.767,236.887 
		148.678,236.604 147.748,236.241 146.982,235.837 146.295,235.352 145.77,234.827 145.367,234.262 145.083,233.576 
		144.882,232.889 144.76,232.122 144.72,231.274 144.72,230.386 144.841,229.457 144.962,228.447 	"/>
	<g>
		<g>
			<polyline fill="none" stroke="#FFFFFF" stroke-width="0.1206" points="152.675,184.393 163.86,184.393 162.204,194.165 
				168.948,194.165 167.494,203.291 160.387,203.089 156.511,225.621 156.511,225.621 156.47,226.428 156.672,227.115 
				157.077,227.64 157.601,228.084 158.328,228.367 159.136,228.609 160.024,228.77 160.993,228.851 160.993,228.851 
				161.881,228.811 162.689,228.73 163.416,228.609 164.062,228.447 164.587,228.286 164.95,228.165 165.192,228.084 
				165.273,228.044 163.86,235.554 163.86,235.554 163.577,235.756 163.295,235.918 163.013,236.079 162.729,236.241 
				162.447,236.362 162.124,236.483 161.76,236.604 161.397,236.725 160.993,236.846 160.589,236.927 160.105,237.008 
				159.621,237.089 159.095,237.169 158.489,237.25 157.843,237.331 157.157,237.412 154.088,237.412 154.088,237.412 
				152.473,237.291 151.06,237.128 149.767,236.887 148.678,236.604 147.748,236.241 146.982,235.837 146.295,235.352 
				145.77,234.827 145.367,234.262 145.083,233.576 144.882,232.889 144.76,232.122 144.72,231.274 144.72,230.386 144.841,229.457 
				144.962,228.447 152.675,184.393 			"/>
		</g>
	</g>
	<polygon fill="#FFFFFF" points="177.872,218.514 177.751,219.2 177.71,219.927 177.791,220.695 177.952,221.462 178.235,222.229 
		178.558,222.956 179.002,223.723 179.487,224.409 180.052,225.096 180.658,225.702 181.304,226.307 182.031,226.792 
		182.758,227.236 183.565,227.599 184.373,227.882 185.18,228.044 186.23,228.205 187.24,228.326 188.29,228.447 189.339,228.528 
		190.389,228.569 191.48,228.569 192.529,228.528 193.62,228.447 194.71,228.286 195.8,228.084 196.931,227.842 198.021,227.478 
		199.152,227.034 200.323,226.55 201.453,225.903 202.624,225.217 201.009,235.15 200.363,235.473 199.717,235.796 199.071,236.039 
		198.465,236.28 197.86,236.483 197.214,236.685 196.568,236.846 195.881,236.967 195.154,237.089 194.347,237.169 193.499,237.25 
		192.57,237.331 191.521,237.371 190.43,237.371 189.178,237.412 187.845,237.412 185.867,237.371 183.848,237.169 181.829,236.887 
		179.81,236.402 177.831,235.796 175.933,235.029 174.116,234.02 172.42,232.849 170.846,231.476 169.473,229.82 168.302,227.963 
		167.333,225.823 166.646,223.44 166.202,220.735 166.081,217.747 166.283,214.436 166.444,213.144 166.687,211.649 167.01,210.075 
		167.454,208.379 168.059,206.642 168.786,204.906 169.716,203.129 170.846,201.433 172.138,199.818 173.713,198.284 
		175.489,196.911 177.508,195.7 179.85,194.69 182.475,193.963 185.382,193.479 188.653,193.317 190.228,193.357 191.883,193.519 
		193.539,193.802 195.195,194.205 196.81,194.811 198.385,195.538 199.838,196.507 201.171,197.638 202.382,199.011 
		203.392,200.626 204.199,202.483 204.765,204.623 205.088,207.046 205.128,209.792 204.845,212.861 204.24,216.253 
		204.038,218.716 174.601,218.716 176.458,210.761 194.145,210.761 194.225,209.752 194.185,208.783 194.104,207.894 
		193.943,207.087 193.66,206.319 193.377,205.633 192.974,205.027 192.57,204.462 192.085,203.977 191.56,203.574 190.955,203.21 
		190.349,202.887 189.703,202.645 189.057,202.483 188.37,202.362 187.644,202.281 186.876,202.322 186.15,202.443 185.463,202.604 
		184.777,202.847 184.09,203.17 183.484,203.533 182.879,203.977 182.354,204.462 181.829,205.027 181.344,205.633 180.9,206.279 
		180.537,206.965 180.173,207.692 179.891,208.5 179.648,209.307 179.487,210.155 	"/>
	<g>
		<g>
			<polyline fill="none" stroke="#FFFFFF" stroke-width="0.1206" points="177.872,218.514 177.872,218.514 177.751,219.2 
				177.71,219.927 177.791,220.695 177.952,221.462 178.235,222.229 178.558,222.956 179.002,223.723 179.487,224.409 
				180.052,225.096 180.658,225.702 181.304,226.307 182.031,226.792 182.758,227.236 183.565,227.599 184.373,227.882 
				185.18,228.044 185.18,228.044 186.23,228.205 187.24,228.326 188.29,228.447 189.339,228.528 190.389,228.569 191.48,228.569 
				192.529,228.528 193.62,228.447 194.71,228.286 195.8,228.084 196.931,227.842 198.021,227.478 199.152,227.034 200.323,226.55 
				201.453,225.903 202.624,225.217 201.009,235.15 201.009,235.15 200.363,235.473 199.717,235.796 199.071,236.039 
				198.465,236.28 197.86,236.483 197.214,236.685 196.568,236.846 195.881,236.967 195.154,237.089 194.347,237.169 
				193.499,237.25 192.57,237.331 191.521,237.371 190.43,237.371 189.178,237.412 187.845,237.412 187.845,237.412 
				185.867,237.371 183.848,237.169 181.829,236.887 179.81,236.402 177.831,235.796 175.933,235.029 174.116,234.02 
				172.42,232.849 170.846,231.476 169.473,229.82 168.302,227.963 167.333,225.823 166.646,223.44 166.202,220.735 
				166.081,217.747 166.283,214.436 166.283,214.436 166.444,213.144 166.687,211.649 167.01,210.075 167.454,208.379 
				168.059,206.642 168.786,204.906 169.716,203.129 170.846,201.433 172.138,199.818 173.713,198.284 175.489,196.911 
				177.508,195.7 179.85,194.69 182.475,193.963 185.382,193.479 188.653,193.317 188.653,193.317 190.228,193.357 191.883,193.519 
				193.539,193.802 195.195,194.205 196.81,194.811 198.385,195.538 199.838,196.507 201.171,197.638 202.382,199.011 
				203.392,200.626 204.199,202.483 204.765,204.623 205.088,207.046 205.128,209.792 204.845,212.861 204.24,216.253 
				204.038,218.716 174.601,218.716 176.458,210.761 194.145,210.761 194.145,210.761 194.225,209.752 194.185,208.783 
				194.104,207.894 193.943,207.087 193.66,206.319 193.377,205.633 192.974,205.027 192.57,204.462 192.085,203.977 
				191.56,203.574 190.955,203.21 190.349,202.887 189.703,202.645 189.057,202.483 188.37,202.362 187.644,202.281 
				187.644,202.281 186.876,202.322 186.15,202.443 185.463,202.604 184.777,202.847 184.09,203.17 183.484,203.533 
				182.879,203.977 182.354,204.462 181.829,205.027 181.344,205.633 180.9,206.279 180.537,206.965 180.173,207.692 179.891,208.5 
				179.648,209.307 179.487,210.155 177.872,218.514 			"/>
		</g>
	</g>
	<polygon fill="#FFFFFF" points="274.177,196.588 273.652,196.305 273.127,196.063 272.562,195.78 271.956,195.498 271.351,195.255 
		270.664,195.013 269.978,194.771 269.251,194.529 268.484,194.327 267.716,194.165 266.868,194.004 266.02,193.882 
		265.092,193.802 264.163,193.721 263.194,193.721 262.184,193.721 261.175,193.721 260.125,193.802 259.035,193.923 
		257.904,194.125 256.773,194.448 255.643,194.892 254.512,195.457 253.382,196.184 252.291,197.072 251.241,198.122 
		250.232,199.414 249.263,200.908 248.375,202.685 247.527,204.704 246.759,206.965 246.113,209.55 245.871,211.003 
		245.709,212.417 245.629,213.83 245.669,215.203 245.79,216.576 246.073,217.868 246.436,219.079 246.88,220.291 247.486,221.381 
		248.213,222.431 249.061,223.36 250.03,224.208 251.12,224.934 252.372,225.54 253.745,226.065 255.279,226.428 255.804,226.55 
		256.41,226.671 257.137,226.751 257.944,226.832 258.833,226.913 259.762,226.913 260.771,226.913 261.781,226.832 262.83,226.711 
		263.88,226.509 264.89,226.227 265.899,225.903 266.909,225.459 267.837,224.934 268.685,224.288 269.493,223.561 267.676,234.343 
		267.434,234.545 267.191,234.787 266.868,235.07 266.505,235.312 266.061,235.635 265.495,235.918 264.849,236.2 264.123,236.443 
		263.194,236.725 262.144,236.927 260.933,237.089 259.519,237.25 257.944,237.331 256.127,237.371 254.068,237.331 251.807,237.21 
		249.949,237.008 248.092,236.604 246.234,235.998 244.377,235.191 242.6,234.222 240.904,233.01 239.289,231.597 237.795,229.981 
		236.463,228.165 235.332,226.146 234.363,223.884 233.636,221.421 233.151,218.716 232.99,215.849 233.071,212.699 
		233.515,209.348 233.838,207.692 234.201,206.077 234.605,204.502 235.009,203.008 235.453,201.595 235.978,200.182 
		236.503,198.849 237.068,197.597 237.674,196.346 238.28,195.175 238.966,194.044 239.693,192.994 240.42,191.985 241.227,191.015 
		242.035,190.127 242.883,189.279 243.812,188.472 244.74,187.704 245.709,187.018 246.719,186.372 247.809,185.766 
		248.899,185.241 250.03,184.757 251.201,184.312 252.453,183.909 253.705,183.586 254.997,183.303 256.37,183.061 257.743,182.858 
		259.196,182.697 260.65,182.617 262.184,182.576 263.477,182.617 264.728,182.697 265.94,182.818 267.151,182.98 268.282,183.141 
		269.372,183.384 270.422,183.586 271.391,183.828 272.32,184.07 273.127,184.312 273.894,184.555 274.54,184.797 275.106,184.999 
		275.59,185.16 275.954,185.322 276.196,185.403 	"/>
	<g>
		<g>
			<polyline fill="none" stroke="#FFFFFF" stroke-width="0.1206" points="274.177,196.588 274.177,196.588 273.652,196.305 
				273.127,196.063 272.562,195.78 271.956,195.498 271.351,195.255 270.664,195.013 269.978,194.771 269.251,194.529 
				268.484,194.327 267.716,194.165 266.868,194.004 266.02,193.882 265.092,193.802 264.163,193.721 263.194,193.721 
				262.184,193.721 262.184,193.721 261.175,193.721 260.125,193.802 259.035,193.923 257.904,194.125 256.773,194.448 
				255.643,194.892 254.512,195.457 253.382,196.184 252.291,197.072 251.241,198.122 250.232,199.414 249.263,200.908 
				248.375,202.685 247.527,204.704 246.759,206.965 246.113,209.55 246.113,209.55 245.871,211.003 245.709,212.417 
				245.629,213.83 245.669,215.203 245.79,216.576 246.073,217.868 246.436,219.079 246.88,220.291 247.486,221.381 
				248.213,222.431 249.061,223.36 250.03,224.208 251.12,224.934 252.372,225.54 253.745,226.065 255.279,226.428 255.279,226.428 
				255.804,226.55 256.41,226.671 257.137,226.751 257.944,226.832 258.833,226.913 259.762,226.913 260.771,226.913 
				261.781,226.832 262.83,226.711 263.88,226.509 264.89,226.227 265.899,225.903 266.909,225.459 267.837,224.934 
				268.685,224.288 269.493,223.561 267.676,234.343 267.676,234.343 267.434,234.545 267.191,234.787 266.868,235.07 
				266.505,235.312 266.061,235.635 265.495,235.918 264.849,236.2 264.123,236.443 263.194,236.725 262.144,236.927 
				260.933,237.089 259.519,237.25 257.944,237.331 256.127,237.371 254.068,237.331 251.807,237.21 251.807,237.21 
				249.949,237.008 248.092,236.604 246.234,235.998 244.377,235.191 242.6,234.222 240.904,233.01 239.289,231.597 
				237.795,229.981 236.463,228.165 235.332,226.146 234.363,223.884 233.636,221.421 233.151,218.716 232.99,215.849 
				233.071,212.699 233.515,209.348 233.515,209.348 233.838,207.692 234.201,206.077 234.605,204.502 235.009,203.008 
				235.453,201.595 235.978,200.182 236.503,198.849 237.068,197.597 237.674,196.346 238.28,195.175 238.966,194.044 
				239.693,192.994 240.42,191.985 241.227,191.015 242.035,190.127 242.883,189.279 243.812,188.472 244.74,187.704 
				245.709,187.018 246.719,186.372 247.809,185.766 248.899,185.241 250.03,184.757 251.201,184.312 252.453,183.909 
				253.705,183.586 254.997,183.303 256.37,183.061 257.743,182.858 259.196,182.697 260.65,182.617 262.184,182.576 
				262.184,182.576 263.477,182.617 264.728,182.697 265.94,182.818 267.151,182.98 268.282,183.141 269.372,183.384 
				270.422,183.586 271.391,183.828 272.32,184.07 273.127,184.312 273.894,184.555 274.54,184.797 275.106,184.999 275.59,185.16 
				275.954,185.322 276.196,185.403 274.177,196.588 			"/>
		</g>
	</g>
	<polygon fill="#FFFFFF" points="373.592,237.412 362.407,237.412 363.215,232.929 363.215,232.526 362.568,233.333 361.882,234.06 
		361.195,234.706 360.468,235.272 359.742,235.796 359.015,236.241 358.288,236.604 357.521,236.967 356.753,237.25 
		355.986,237.452 355.219,237.654 354.411,237.775 353.604,237.896 352.837,237.976 352.029,238.017 351.221,238.017 
		349.122,237.856 347.183,237.412 345.407,236.725 343.792,235.796 342.338,234.625 341.046,233.253 339.915,231.759 
		338.946,230.063 338.138,228.245 337.492,226.348 337.048,224.369 336.725,222.31 336.604,220.25 336.644,218.151 336.846,216.091 
		337.21,214.032 337.815,211.649 338.542,209.388 339.39,207.329 340.4,205.391 341.45,203.574 342.661,201.958 343.913,200.505 
		345.245,199.172 346.659,198.001 348.153,196.992 349.688,196.103 351.221,195.417 352.837,194.852 354.452,194.488 
		356.067,194.246 357.723,194.165 358.894,194.205 360.024,194.327 361.074,194.529 362.043,194.811 362.972,195.134 
		363.779,195.498 364.587,195.942 365.314,196.386 365.96,196.871 366.566,197.395 367.091,197.92 367.575,198.445 367.979,198.97 
		368.342,199.495 368.665,199.98 368.908,200.464 368.908,200.464 371.734,184.595 382.718,184.595 	"/>
	<g>
		<g>
			<polyline fill="none" stroke="#FFFFFF" stroke-width="0.1206" points="373.592,237.412 362.407,237.412 363.215,232.929 
				363.215,232.526 363.215,232.526 362.568,233.333 361.882,234.06 361.195,234.706 360.468,235.272 359.742,235.796 
				359.015,236.241 358.288,236.604 357.521,236.967 356.753,237.25 355.986,237.452 355.219,237.654 354.411,237.775 
				353.604,237.896 352.837,237.976 352.029,238.017 351.221,238.017 351.221,238.017 349.122,237.856 347.183,237.412 
				345.407,236.725 343.792,235.796 342.338,234.625 341.046,233.253 339.915,231.759 338.946,230.063 338.138,228.245 
				337.492,226.348 337.048,224.369 336.725,222.31 336.604,220.25 336.644,218.151 336.846,216.091 337.21,214.032 337.21,214.032 
				337.815,211.649 338.542,209.388 339.39,207.329 340.4,205.391 341.45,203.574 342.661,201.958 343.913,200.505 345.245,199.172 
				346.659,198.001 348.153,196.992 349.688,196.103 351.221,195.417 352.837,194.852 354.452,194.488 356.067,194.246 
				357.723,194.165 357.723,194.165 358.894,194.205 360.024,194.327 361.074,194.529 362.043,194.811 362.972,195.134 
				363.779,195.498 364.587,195.942 365.314,196.386 365.96,196.871 366.566,197.395 367.091,197.92 367.575,198.445 
				367.979,198.97 368.342,199.495 368.665,199.98 368.908,200.464 368.908,200.464 371.734,184.595 382.718,184.595 
				373.592,237.412 			"/>
		</g>
	</g>
	<polygon fill="#F9B31E" points="355.3,227.64 356.431,227.559 357.48,227.317 358.449,227.034 359.378,226.59 360.226,226.105 
		361.034,225.5 361.801,224.813 362.487,224.086 363.093,223.279 363.658,222.39 364.183,221.462 364.627,220.493 365.031,219.483 
		365.354,218.433 365.637,217.343 365.839,216.253 366.041,215.122 366.162,213.951 366.162,212.861 366.121,211.73 366,210.68 
		365.839,209.671 365.556,208.702 365.233,207.773 364.83,206.965 364.345,206.198 363.82,205.552 363.215,204.987 362.528,204.502 
		361.801,204.179 361.034,203.977 360.186,203.897 359.095,203.977 358.087,204.139 357.157,204.462 356.228,204.866 
		355.421,205.391 354.613,206.037 353.927,206.723 353.24,207.49 352.635,208.379 352.069,209.307 351.544,210.277 351.1,211.326 
		350.696,212.417 350.373,213.507 350.05,214.678 349.809,215.849 349.606,217.626 349.688,219.564 349.97,221.542 350.495,223.44 
		351.302,225.096 352.352,226.428 353.685,227.317 	"/>
	<polygon fill="#FFFFFF" points="107.328,228.447 105.713,237.412 95.538,237.412 95.82,235.756 96.022,234.262 96.184,233.131 
		96.345,232.526 95.78,233.172 95.134,233.818 94.367,234.424 93.519,234.989 92.55,235.554 91.54,236.039 90.49,236.523 
		89.4,236.927 88.229,237.291 87.058,237.573 85.887,237.815 84.676,237.976 83.505,238.058 82.333,238.098 81.203,237.976 
		80.113,237.815 78.699,237.452 77.407,237.048 76.277,236.523 75.267,235.918 74.379,235.272 73.571,234.545 72.926,233.777 
		72.36,232.97 71.875,232.122 71.471,231.233 71.148,230.345 70.906,229.457 70.745,228.528 70.623,227.599 70.543,226.711 
		70.543,225.823 70.664,224.248 70.906,222.754 71.31,221.341 71.835,219.968 72.481,218.676 73.208,217.505 74.056,216.374 
		75.025,215.364 76.034,214.436 77.165,213.588 78.336,212.82 79.547,212.174 80.839,211.609 82.173,211.165 83.545,210.801 
		84.958,210.559 85.039,210.559 85.241,210.519 85.524,210.478 85.968,210.438 86.452,210.357 87.018,210.317 87.623,210.236 
		88.31,210.155 88.996,210.075 89.683,209.994 90.409,209.954 91.055,209.873 91.702,209.832 92.307,209.792 92.873,209.752 
		93.317,209.752 94.245,209.752 95.215,209.792 96.103,209.832 96.991,209.832 97.718,209.873 98.283,209.913 98.687,209.954 
		98.808,209.954 98.889,209.671 99.131,208.944 99.333,208.096 99.415,207.329 99.253,206.44 98.889,205.633 98.405,204.906 
		97.759,204.3 96.991,203.775 96.143,203.412 95.174,203.17 94.124,203.089 92.994,203.049 91.782,203.008 90.531,203.008 
		89.238,203.049 87.906,203.129 86.614,203.251 85.322,203.372 84.07,203.533 82.858,203.695 81.687,203.897 80.638,204.098 
		79.669,204.3 78.78,204.543 78.053,204.785 77.488,205.068 77.044,205.31 79.911,195.578 80.799,195.215 81.687,194.892 
		82.657,194.609 83.626,194.407 84.595,194.205 85.645,194.044 86.694,193.882 87.785,193.802 88.916,193.721 90.086,193.681 
		91.298,193.64 92.55,193.64 93.842,193.64 95.174,193.64 96.588,193.681 98.001,193.721 99.131,193.802 100.343,194.004 
		101.595,194.286 102.887,194.65 104.138,195.134 105.35,195.7 106.561,196.386 107.692,197.153 108.701,198.042 109.59,199.011 
		110.397,200.101 111.003,201.312 111.407,202.604 111.649,203.977 111.649,205.512 111.407,207.127 	"/>
	<g>
		<g>
			<polyline fill="none" stroke="#FFFFFF" stroke-width="0.1206" points="107.328,228.447 105.713,237.412 95.538,237.412 
				95.538,237.412 95.82,235.756 96.022,234.262 96.184,233.131 96.345,232.526 96.345,232.526 95.78,233.172 95.134,233.818 
				94.367,234.424 93.519,234.989 92.55,235.554 91.54,236.039 90.49,236.523 89.4,236.927 88.229,237.291 87.058,237.573 
				85.887,237.815 84.676,237.976 83.505,238.058 82.333,238.098 81.203,237.976 80.113,237.815 80.113,237.815 78.699,237.452 
				77.407,237.048 76.277,236.523 75.267,235.918 74.379,235.272 73.571,234.545 72.926,233.777 72.36,232.97 71.875,232.122 
				71.471,231.233 71.148,230.345 70.906,229.457 70.745,228.528 70.623,227.599 70.543,226.711 70.543,225.823 70.543,225.823 
				70.664,224.248 70.906,222.754 71.31,221.341 71.835,219.968 72.481,218.676 73.208,217.505 74.056,216.374 75.025,215.364 
				76.034,214.436 77.165,213.588 78.336,212.82 79.547,212.174 80.839,211.609 82.173,211.165 83.545,210.801 84.958,210.559 
				84.958,210.559 85.039,210.559 85.241,210.519 85.524,210.478 85.968,210.438 86.452,210.357 87.018,210.317 87.623,210.236 
				88.31,210.155 88.996,210.075 89.683,209.994 90.409,209.954 91.055,209.873 91.702,209.832 92.307,209.792 92.873,209.752 
				93.317,209.752 93.317,209.752 94.245,209.752 95.215,209.792 96.103,209.832 96.991,209.832 97.718,209.873 98.283,209.913 
				98.687,209.954 98.808,209.954 98.808,209.954 98.889,209.671 99.131,208.944 99.333,208.096 99.415,207.329 99.415,207.329 
				99.253,206.44 98.889,205.633 98.405,204.906 97.759,204.3 96.991,203.775 96.143,203.412 95.174,203.17 94.124,203.089 
				94.124,203.089 92.994,203.049 91.782,203.008 90.531,203.008 89.238,203.049 87.906,203.129 86.614,203.251 85.322,203.372 
				84.07,203.533 82.858,203.695 81.687,203.897 80.638,204.098 79.669,204.3 78.78,204.543 78.053,204.785 77.488,205.068 
				77.044,205.31 79.911,195.578 79.911,195.578 80.799,195.215 81.687,194.892 82.657,194.609 83.626,194.407 84.595,194.205 
				85.645,194.044 86.694,193.882 87.785,193.802 88.916,193.721 90.086,193.681 91.298,193.64 92.55,193.64 93.842,193.64 
				95.174,193.64 96.588,193.681 98.001,193.721 98.001,193.721 99.131,193.802 100.343,194.004 101.595,194.286 102.887,194.65 
				104.138,195.134 105.35,195.7 106.561,196.386 107.692,197.153 108.701,198.042 109.59,199.011 110.397,200.101 111.003,201.312 
				111.407,202.604 111.649,203.977 111.649,205.512 111.407,207.127 107.328,228.447 			"/>
		</g>
	</g>
	<polygon fill="#E30520" points="97.597,217.908 97.557,217.706 97.395,217.505 97.153,217.383 96.749,217.303 96.305,217.222 
		95.78,217.181 95.174,217.181 94.569,217.181 93.922,217.222 93.236,217.303 92.59,217.383 91.944,217.464 91.338,217.545 
		90.773,217.666 90.288,217.787 89.844,217.908 89.561,217.989 89.238,218.11 88.794,218.272 88.35,218.474 87.825,218.716 
		87.3,218.999 86.735,219.281 86.21,219.604 85.645,220.008 85.12,220.412 84.635,220.896 84.191,221.381 83.787,221.906 
		83.505,222.471 83.262,223.117 83.141,223.763 83.101,225.136 83.303,226.227 83.706,227.034 84.231,227.64 84.837,228.044 
		85.524,228.286 86.17,228.407 86.816,228.447 88.027,228.407 89.117,228.286 90.168,228.124 91.096,227.882 91.903,227.599 
		92.671,227.236 93.357,226.873 93.963,226.428 94.488,226.025 94.972,225.54 95.376,225.096 95.699,224.611 95.982,224.127 
		96.224,223.642 96.426,223.198 96.547,222.754 96.87,221.583 97.153,220.25 97.395,218.958 	"/>
	<polygon fill="#FFFFFF" points="22.37,237.412 11.386,237.412 20.553,184.393 39.652,184.393 41.469,215.849 54.673,184.393 
		74.622,184.393 65.253,237.412 54.27,237.412 61.215,197.799 60.771,197.799 44.336,237.412 31.94,237.412 31.859,235.756 
		31.576,231.355 31.213,225.096 30.809,217.908 30.405,210.68 30.042,204.341 29.759,199.737 29.678,197.799 29.557,197.799 
		29.315,197.799 29.073,197.799 29.073,197.799 	"/>
	<g>
		<g>
			<polyline fill="none" stroke="#FFFFFF" stroke-width="0.1206" points="22.37,237.412 11.386,237.412 20.553,184.393 
				39.652,184.393 41.469,215.849 54.673,184.393 74.622,184.393 65.253,237.412 54.27,237.412 61.215,197.799 60.771,197.799 
				44.336,237.412 31.94,237.412 31.94,237.412 31.859,235.756 31.576,231.355 31.213,225.096 30.809,217.908 30.405,210.68 
				30.042,204.341 29.759,199.737 29.678,197.799 29.678,197.799 29.557,197.799 29.315,197.799 29.073,197.799 29.073,197.799 
				22.37,237.412 			"/>
		</g>
	</g>
	<polygon fill="#FFFFFF" points="307.733,228.447 306.078,237.412 295.942,237.412 296.023,235.756 296.063,234.302 
		296.063,233.212 296.144,232.728 295.619,233.333 295.013,233.939 294.287,234.504 293.479,235.07 292.631,235.595 
		291.661,236.079 290.652,236.564 289.642,236.967 288.552,237.291 287.422,237.614 286.291,237.815 285.16,237.976 
		283.989,238.058 282.859,238.098 281.768,237.976 280.678,237.815 279.225,237.452 277.932,237.048 276.802,236.523 
		275.752,235.918 274.864,235.272 274.096,234.545 273.45,233.777 272.885,232.97 272.4,232.122 272.037,231.233 271.714,230.345 
		271.512,229.457 271.351,228.528 271.229,227.599 271.149,226.711 271.149,225.823 271.229,224.248 271.472,222.754 
		271.835,221.341 272.36,219.968 272.966,218.676 273.733,217.505 274.581,216.374 275.51,215.364 276.559,214.436 277.65,213.588 
		278.821,212.82 280.073,212.174 281.324,211.609 282.657,211.165 283.989,210.801 285.362,210.559 285.443,210.559 
		285.645,210.519 285.928,210.478 286.331,210.438 286.856,210.357 287.422,210.317 288.027,210.236 288.673,210.155 
		289.36,210.075 290.087,209.994 290.773,209.954 291.46,209.873 292.106,209.832 292.672,209.792 293.236,209.752 293.68,209.752 
		294.65,209.752 295.619,209.792 296.547,209.832 297.436,209.832 298.203,209.873 298.849,209.913 299.213,209.954 
		299.375,209.954 299.455,209.671 299.576,208.944 299.697,208.096 299.778,207.329 299.616,206.44 299.294,205.633 
		298.768,204.906 298.163,204.3 297.436,203.775 296.588,203.412 295.699,203.17 294.73,203.089 293.6,203.049 292.388,203.008 
		291.137,203.008 289.844,203.049 288.512,203.129 287.22,203.251 285.928,203.372 284.676,203.533 283.464,203.695 
		282.293,203.897 281.244,204.098 280.274,204.3 279.386,204.543 278.659,204.785 278.094,205.068 277.65,205.31 280.476,195.578 
		281.365,195.215 282.293,194.892 283.222,194.609 284.191,194.407 285.201,194.205 286.21,194.044 287.26,193.882 288.35,193.802 
		289.481,193.721 290.652,193.681 291.823,193.64 293.075,193.64 294.327,193.64 295.619,193.64 296.992,193.681 298.364,193.721 
		299.495,193.802 300.707,194.004 301.958,194.286 303.25,194.65 304.502,195.134 305.754,195.7 306.965,196.386 308.096,197.153 
		309.105,198.042 310.034,199.011 310.842,200.101 311.447,201.312 311.892,202.604 312.174,203.977 312.174,205.512 
		311.972,207.127 	"/>
	<polygon fill="#FFFFFF" points="306.078,237.694 306.319,237.452 307.975,228.488 307.49,228.407 305.835,237.371 306.078,237.128 
		306.078,237.694 306.279,237.654 306.319,237.452 	"/>
	<polygon fill="#FFFFFF" points="295.699,237.412 295.942,237.694 306.078,237.694 306.078,237.128 295.942,237.128 
		296.184,237.412 295.699,237.412 295.659,237.694 295.942,237.694 	"/>
	<polygon fill="#FFFFFF" points="296.345,232.889 295.983,232.566 295.821,233.212 295.78,234.302 295.78,235.756 295.699,237.412 
		296.184,237.412 296.265,235.756 296.345,234.302 296.305,233.212 296.305,232.889 295.942,232.566 	"/>
	<polygon fill="#FFFFFF" points="280.638,238.058 280.638,238.058 281.768,238.219 282.859,238.34 283.989,238.3 285.16,238.219 
		286.331,238.058 287.463,237.856 288.593,237.532 289.723,237.21 290.733,236.806 291.783,236.321 292.752,235.837 293.6,235.272 
		294.448,234.706 295.174,234.141 295.821,233.495 296.345,232.889 295.942,232.566 295.417,233.172 294.851,233.737 
		294.125,234.302 293.357,234.868 292.51,235.352 291.54,235.837 290.571,236.321 289.562,236.725 288.512,237.048 287.381,237.371 
		286.251,237.573 285.16,237.735 283.989,237.815 282.859,237.856 281.768,237.735 280.719,237.573 280.719,237.573 	"/>
	<polygon fill="#FFFFFF" points="270.866,225.823 270.866,225.823 270.906,226.711 270.987,227.599 271.108,228.569 271.27,229.497 
		271.472,230.386 271.795,231.314 272.158,232.243 272.683,233.091 273.248,233.939 273.894,234.706 274.702,235.473 
		275.631,236.12 276.681,236.766 277.852,237.291 279.184,237.694 280.638,238.058 280.719,237.573 279.265,237.21 278.013,236.806 
		276.923,236.28 275.873,235.716 275.025,235.07 274.298,234.383 273.652,233.616 273.087,232.849 272.643,232.001 272.279,231.153 
		271.956,230.305 271.754,229.417 271.593,228.488 271.472,227.599 271.391,226.711 271.431,225.823 271.431,225.823 	"/>
	<polygon fill="#FFFFFF" points="285.362,210.317 285.362,210.317 283.949,210.559 282.576,210.923 281.244,211.367 
		279.951,211.932 278.7,212.578 277.488,213.386 276.398,214.234 275.348,215.203 274.379,216.212 273.531,217.343 272.723,218.554 
		272.118,219.887 271.593,221.26 271.229,222.713 270.987,224.248 270.866,225.823 271.431,225.823 271.472,224.248 
		271.714,222.794 272.077,221.421 272.602,220.048 273.208,218.797 273.935,217.666 274.783,216.535 275.671,215.526 
		276.721,214.638 277.811,213.79 278.942,213.063 280.194,212.417 281.405,211.851 282.738,211.407 284.03,211.044 285.362,210.801 
		285.362,210.801 	"/>
	<polygon fill="#FFFFFF" points="293.68,209.469 293.68,209.469 293.236,209.469 292.672,209.55 292.106,209.59 291.46,209.63 
		290.773,209.711 290.087,209.752 289.36,209.832 288.673,209.913 288.027,209.994 287.422,210.075 286.856,210.115 
		286.331,210.196 285.928,210.236 285.605,210.277 285.443,210.317 285.362,210.317 285.362,210.801 285.443,210.801 
		285.685,210.761 285.928,210.721 286.331,210.68 286.856,210.6 287.422,210.559 288.027,210.478 288.673,210.398 289.36,210.317 
		290.087,210.236 290.773,210.196 291.46,210.115 292.106,210.075 292.672,210.034 293.236,210.034 293.68,210.034 293.68,210.034 	
		"/>
	<polygon fill="#FFFFFF" points="299.132,209.913 299.375,209.711 299.213,209.711 298.849,209.671 298.203,209.63 297.436,209.55 
		296.547,209.55 295.619,209.55 294.65,209.469 293.68,209.469 293.68,210.034 294.65,210.034 295.619,210.034 296.547,210.115 
		297.436,210.115 298.203,210.115 298.849,210.155 299.213,210.196 299.375,210.196 299.616,209.994 299.375,210.196 
		299.576,210.236 299.616,209.994 	"/>
	<polygon fill="#FFFFFF" points="299.535,207.329 299.495,207.329 299.455,208.096 299.334,208.904 299.213,209.63 299.132,209.913 
		299.616,209.994 299.697,209.711 299.818,208.984 299.939,208.096 300.06,207.329 300.02,207.329 	"/>
	<polygon fill="#FFFFFF" points="294.73,203.331 294.73,203.372 295.659,203.412 296.507,203.654 297.315,204.018 298.001,204.502 
		298.566,205.068 299.051,205.754 299.375,206.481 299.535,207.329 300.02,207.329 299.859,206.4 299.535,205.512 298.97,204.745 
		298.324,204.098 297.557,203.533 296.669,203.17 295.74,202.927 294.73,202.806 294.73,202.847 	"/>
	<polygon fill="#FFFFFF" points="277.407,205.269 277.811,205.512 278.215,205.31 278.74,205.027 279.426,204.785 280.315,204.543 
		281.284,204.341 282.334,204.139 283.505,203.937 284.676,203.775 285.928,203.614 287.22,203.493 288.512,203.372 
		289.844,203.291 291.137,203.291 292.388,203.291 293.6,203.291 294.73,203.331 294.73,202.847 293.6,202.806 292.388,202.726 
		291.137,202.726 289.844,202.806 288.512,202.887 287.22,203.008 285.928,203.129 284.676,203.291 283.424,203.452 
		282.253,203.654 281.203,203.856 280.234,204.058 279.346,204.3 278.578,204.543 277.973,204.825 277.488,205.108 277.892,205.35 	
		"/>
	<polygon fill="#FFFFFF" points="280.396,195.336 280.234,195.538 277.407,205.269 277.892,205.35 280.719,195.619 280.557,195.821 
		280.396,195.336 280.274,195.376 280.234,195.538 	"/>
	<polygon fill="#FFFFFF" points="298.364,193.479 298.364,193.479 296.992,193.398 295.619,193.357 294.327,193.357 
		293.075,193.357 291.823,193.357 290.652,193.438 289.481,193.479 288.35,193.559 287.26,193.64 286.17,193.802 285.16,193.963 
		284.151,194.165 283.182,194.367 282.213,194.65 281.284,194.973 280.396,195.336 280.557,195.821 281.445,195.457 
		282.374,195.134 283.263,194.852 284.232,194.65 285.241,194.448 286.251,194.286 287.26,194.125 288.35,194.044 289.481,193.963 
		290.652,193.923 291.823,193.923 293.075,193.923 294.327,193.923 295.619,193.923 296.992,193.963 298.364,193.963 
		298.364,193.963 	"/>
	<polygon fill="#FFFFFF" points="312.215,207.167 312.215,207.167 312.417,205.512 312.417,203.977 312.134,202.564 311.69,201.232 
		311.044,199.98 310.236,198.849 309.267,197.84 308.258,196.951 307.086,196.184 305.875,195.457 304.583,194.892 303.331,194.407 
		301.999,194.044 300.747,193.761 299.495,193.559 298.364,193.479 298.364,193.963 299.495,194.044 300.666,194.246 
		301.918,194.529 303.17,194.892 304.422,195.376 305.633,195.942 306.844,196.588 307.934,197.355 308.944,198.243 
		309.832,199.172 310.64,200.222 311.205,201.393 311.649,202.645 311.932,203.977 311.932,205.512 311.73,207.087 311.73,207.087 	
		"/>
	<polygon fill="#FFFFFF" points="307.975,228.488 307.975,228.488 312.215,207.167 311.73,207.087 307.49,228.407 307.49,228.407 	
		"/>
	<polygon fill="#F9B31E" points="297.961,217.908 297.88,217.666 297.719,217.464 297.436,217.343 297.032,217.222 296.588,217.181 
		296.063,217.141 295.457,217.141 294.851,217.181 294.206,217.262 293.559,217.343 292.913,217.424 292.308,217.505 
		291.702,217.626 291.177,217.706 290.652,217.828 290.248,217.908 289.966,217.949 289.642,218.07 289.239,218.191 
		288.795,218.352 288.27,218.595 287.785,218.837 287.22,219.12 286.695,219.483 286.17,219.847 285.645,220.291 285.201,220.735 
		284.757,221.26 284.393,221.825 284.11,222.431 283.868,223.077 283.747,223.763 283.707,225.136 283.909,226.227 284.232,227.034 
		284.716,227.64 285.322,228.044 286.008,228.286 286.695,228.407 287.381,228.447 288.593,228.407 289.723,228.286 
		290.773,228.084 291.702,227.801 292.591,227.478 293.357,227.115 294.084,226.711 294.73,226.227 295.296,225.782 295.78,225.257 
		296.224,224.773 296.588,224.248 296.87,223.763 297.072,223.279 297.234,222.794 297.355,222.35 297.517,221.219 297.719,220.048 
		297.88,218.918 	"/>
	<g>
		<g>
			<polygon fill="#FFFFFF" points="381.143,231.88 381.223,230.951 381.547,229.861 382.112,228.892 382.798,228.044 
				383.646,227.357 384.615,226.873 385.665,226.55 386.796,226.428 387.926,226.55 388.976,226.873 389.945,227.357 
				390.793,228.044 391.48,228.892 392.045,229.861 392.368,230.951 392.449,231.88 391.238,231.88 391.197,231.153 
				390.955,230.264 390.551,229.457 390.026,228.77 389.38,228.205 388.613,227.801 387.725,227.519 386.796,227.438 
				385.867,227.519 384.979,227.801 384.212,228.205 383.565,228.77 383.041,229.457 382.637,230.264 382.394,231.153 
				382.314,231.88 			"/>
			<polygon fill="#FFFFFF" points="384.777,231.88 384.777,229.457 386.998,229.457 387.482,229.497 387.926,229.578 
				388.25,229.699 388.532,229.861 388.734,230.103 388.896,230.345 388.976,230.628 389.017,230.911 388.976,231.274 
				388.896,231.557 388.774,231.799 388.694,231.88 386.998,231.88 387.159,231.839 387.442,231.799 387.684,231.718 
				387.886,231.637 388.048,231.516 388.128,231.395 388.209,231.193 388.209,230.911 388.169,230.709 388.088,230.547 
				387.967,230.466 387.846,230.386 387.644,230.345 387.442,230.305 387.24,230.305 386.998,230.305 385.786,230.305 
				385.786,231.88 			"/>
			<polygon fill="#FFFFFF" points="381.143,231.88 381.102,232.122 381.223,233.293 381.547,234.383 382.112,235.352 
				382.798,236.16 383.646,236.846 384.615,237.371 385.665,237.694 386.796,237.815 387.926,237.694 388.976,237.371 
				389.945,236.846 390.793,236.16 391.48,235.352 392.045,234.383 392.368,233.293 392.489,232.122 392.449,231.88 391.238,231.88 
				391.278,232.122 391.197,233.091 390.955,233.979 390.551,234.747 390.026,235.433 389.38,235.998 388.613,236.443 
				387.725,236.725 386.796,236.806 385.867,236.725 384.979,236.443 384.212,235.998 383.565,235.433 383.041,234.747 
				382.637,233.979 382.394,233.091 382.314,232.122 382.314,231.88 			"/>
			<polygon fill="#FFFFFF" points="384.777,231.88 384.777,234.343 385.786,234.343 385.786,232.324 386.796,232.324 
				388.007,234.343 388.815,234.343 387.603,232.324 387.886,232.324 388.169,232.243 388.412,232.162 388.613,232.001 
				388.694,231.88 386.998,231.88 386.796,231.92 385.786,231.92 385.786,231.88 			"/>
		</g>
	</g>
	<g>
		<g>
			<polyline fill="none" stroke="#FFFFFF" stroke-width="0.1206" points="381.102,232.122 381.102,232.122 381.223,230.951 
				381.547,229.861 382.112,228.892 382.798,228.044 383.646,227.357 384.615,226.873 385.665,226.55 386.796,226.428 
				386.796,226.428 387.926,226.55 388.976,226.873 389.945,227.357 390.793,228.044 391.48,228.892 392.045,229.861 
				392.368,230.951 392.489,232.122 392.489,232.122 392.368,233.293 392.045,234.383 391.48,235.352 390.793,236.16 
				389.945,236.846 388.976,237.371 387.926,237.694 386.796,237.815 386.796,237.815 385.665,237.694 384.615,237.371 
				383.646,236.846 382.798,236.16 382.112,235.352 381.547,234.383 381.223,233.293 381.102,232.122 			"/>
		</g>
	</g>
	<g>
		<g>
			<polyline fill="none" stroke="#FFFFFF" stroke-width="0.1206" points="385.786,234.343 384.777,234.343 384.777,229.457 
				386.998,229.457 386.998,229.457 387.482,229.497 387.926,229.578 388.25,229.699 388.532,229.861 388.734,230.103 
				388.896,230.345 388.976,230.628 389.017,230.911 389.017,230.911 388.976,231.274 388.896,231.557 388.774,231.799 
				388.613,232.001 388.412,232.162 388.169,232.243 387.886,232.324 387.603,232.324 388.815,234.343 388.007,234.343 
				386.796,232.324 385.786,232.324 385.786,234.343 			"/>
		</g>
	</g>
	<g>
		<g>
			<polyline fill="none" stroke="#FFFFFF" stroke-width="0.1206" points="386.796,231.92 386.796,231.92 387.159,231.839 
				387.442,231.799 387.684,231.718 387.886,231.637 388.048,231.516 388.128,231.395 388.209,231.193 388.209,230.911 
				388.209,230.911 388.169,230.709 388.088,230.547 387.967,230.466 387.846,230.386 387.644,230.345 387.442,230.305 
				387.24,230.305 386.998,230.305 385.786,230.305 385.786,231.92 386.796,231.92 			"/>
		</g>
	</g>
	<g>
		<g>
			<polyline fill="none" stroke="#FFFFFF" stroke-width="0.1206" points="386.796,236.806 386.796,236.806 387.725,236.725 
				388.613,236.443 389.38,235.998 390.026,235.433 390.551,234.747 390.955,233.979 391.197,233.091 391.278,232.122 
				391.278,232.122 391.197,231.153 390.955,230.264 390.551,229.457 390.026,228.77 389.38,228.205 388.613,227.801 
				387.725,227.519 386.796,227.438 386.796,227.438 385.867,227.519 384.979,227.801 384.212,228.205 383.565,228.77 
				383.041,229.457 382.637,230.264 382.394,231.153 382.314,232.122 382.314,232.122 382.394,233.091 382.637,233.979 
				383.041,234.747 383.565,235.433 384.212,235.998 384.979,236.443 385.867,236.725 386.796,236.806 			"/>
		</g>
	</g>
	<polygon fill="#FFFFFF" points="310.761,237.412 322.148,237.412 322.148,237.412 326.227,214.436 326.388,213.547 326.63,212.659 
		326.872,211.771 327.196,210.882 327.599,209.994 328.084,209.146 328.609,208.338 329.255,207.571 329.982,206.885 
		330.789,206.239 331.718,205.633 332.768,205.148 333.939,204.745 335.231,204.422 336.644,204.179 338.219,204.098 
		338.784,204.098 339.108,204.098 339.229,204.098 339.229,204.098 341.046,193.721 339.915,193.802 338.825,193.923 
		337.815,194.125 336.846,194.407 335.958,194.73 335.11,195.134 334.302,195.578 333.535,196.063 332.808,196.628 332.122,197.194 
		331.476,197.84 330.83,198.486 330.224,199.172 329.619,199.939 329.013,200.666 328.447,201.474 329.659,194.165 318.312,194.165 
		310.761,237.412 	"/>
	<g>
		<g>
			<polyline fill="none" stroke="#FFFFFF" stroke-width="0.1206" points="310.761,237.412 322.148,237.412 322.148,237.412 
				326.227,214.436 326.227,214.436 326.388,213.547 326.63,212.659 326.872,211.771 327.196,210.882 327.599,209.994 
				328.084,209.146 328.609,208.338 329.255,207.571 329.982,206.885 330.789,206.239 331.718,205.633 332.768,205.148 
				333.939,204.745 335.231,204.422 336.644,204.179 338.219,204.098 338.219,204.098 338.784,204.098 339.108,204.098 
				339.229,204.098 339.229,204.098 341.046,193.721 341.046,193.721 339.915,193.802 338.825,193.923 337.815,194.125 
				336.846,194.407 335.958,194.73 335.11,195.134 334.302,195.578 333.535,196.063 332.808,196.628 332.122,197.194 
				331.476,197.84 330.83,198.486 330.224,199.172 329.619,199.939 329.013,200.666 328.447,201.474 329.659,194.165 
				318.312,194.165 310.761,237.412 310.761,237.412 			"/>
		</g>
	</g>
	<polygon fill="#FFFFFF" points="203.836,237.412 215.223,237.412 215.425,237.412 219.301,214.436 219.463,213.547 
		219.665,212.699 219.867,211.851 220.149,211.044 220.472,210.236 220.876,209.469 221.361,208.742 221.926,208.056 
		222.572,207.45 223.299,206.844 224.187,206.36 225.156,205.916 226.287,205.552 227.539,205.229 228.912,205.027 230.486,204.906 
		230.607,204.906 230.769,204.946 230.971,204.987 231.173,204.987 231.375,205.027 231.536,205.068 231.657,205.108 
		231.698,205.108 231.738,204.946 231.859,204.462 232.021,203.735 232.223,202.847 232.505,201.797 232.788,200.666 
		233.151,199.536 233.515,198.405 233.838,197.638 234.242,196.871 234.645,196.103 235.049,195.417 235.413,194.811 
		235.695,194.327 235.897,194.044 235.978,193.923 235.938,193.923 235.776,193.882 235.574,193.842 235.292,193.802 
		235.009,193.802 234.686,193.761 234.403,193.721 234.12,193.721 232.869,193.802 231.738,193.923 230.688,194.125 
		229.719,194.367 228.79,194.69 227.942,195.094 227.175,195.498 226.448,195.982 225.762,196.507 225.116,197.113 224.51,197.718 
		223.904,198.405 223.299,199.091 222.733,199.859 222.128,200.666 221.522,201.474 222.976,194.165 211.387,194.165 
		203.836,237.412 	"/>
	<g>
		<g>
			<polyline fill="none" stroke="#FFFFFF" stroke-width="0.1206" points="203.836,237.412 215.223,237.412 215.425,237.412 
				219.301,214.436 219.301,214.436 219.463,213.547 219.665,212.699 219.867,211.851 220.149,211.044 220.472,210.236 
				220.876,209.469 221.361,208.742 221.926,208.056 222.572,207.45 223.299,206.844 224.187,206.36 225.156,205.916 
				226.287,205.552 227.539,205.229 228.912,205.027 230.486,204.906 230.486,204.906 230.607,204.906 230.769,204.946 
				230.971,204.987 231.173,204.987 231.375,205.027 231.536,205.068 231.657,205.108 231.698,205.108 231.698,205.108 
				231.738,204.946 231.859,204.462 232.021,203.735 232.223,202.847 232.505,201.797 232.788,200.666 233.151,199.536 
				233.515,198.405 233.515,198.405 233.838,197.638 234.242,196.871 234.645,196.103 235.049,195.417 235.413,194.811 
				235.695,194.327 235.897,194.044 235.978,193.923 235.978,193.923 235.938,193.923 235.776,193.882 235.574,193.842 
				235.292,193.802 235.009,193.802 234.686,193.761 234.403,193.721 234.12,193.721 234.12,193.721 232.869,193.802 
				231.738,193.923 230.688,194.125 229.719,194.367 228.79,194.69 227.942,195.094 227.175,195.498 226.448,195.982 
				225.762,196.507 225.116,197.113 224.51,197.718 223.904,198.405 223.299,199.091 222.733,199.859 222.128,200.666 
				221.522,201.474 222.976,194.165 211.387,194.165 203.836,237.412 203.836,237.412 			"/>
		</g>
	</g>
	<g>
		<g>
			<polygon fill="#F9B31E" points="381.223,279.891 381.223,279.73 381.547,278.68 382.112,277.751 382.798,276.943 
				383.646,276.297 384.615,275.813 385.665,275.53 386.796,275.409 387.926,275.53 388.976,275.813 389.945,276.297 
				390.793,276.943 391.48,277.751 392.045,278.68 392.368,279.73 392.368,279.891 391.197,279.891 390.955,279.043 
				390.551,278.276 390.026,277.589 389.38,277.024 388.613,276.58 387.725,276.297 386.796,276.216 385.867,276.297 
				384.979,276.58 384.212,277.024 383.565,277.589 383.041,278.276 382.637,279.043 382.394,279.891 			"/>
			<polygon fill="#F9B31E" points="384.777,279.891 384.777,278.478 386.998,278.478 387.482,278.478 387.926,278.559 
				388.25,278.639 388.532,278.801 388.734,279.003 388.896,279.245 388.976,279.528 389.017,279.891 388.209,279.891 
				388.209,279.689 388.169,279.487 388.088,279.326 387.967,279.245 387.846,279.164 387.644,279.124 387.442,279.083 
				387.24,279.083 386.998,279.083 385.786,279.083 385.786,279.891 			"/>
			<polygon fill="#F9B31E" points="381.102,280.779 381.223,279.891 382.394,279.891 382.394,279.931 382.314,280.779 			"/>
			<polygon fill="#F9B31E" points="384.777,280.779 384.777,279.891 385.786,279.891 385.786,280.699 386.796,280.699 
				387.159,280.618 387.442,280.577 387.684,280.497 387.886,280.416 388.048,280.295 388.128,280.174 388.209,279.972 
				388.209,279.891 389.017,279.891 389.017,279.891 388.976,280.174 388.896,280.416 388.774,280.618 388.613,280.779 			"/>
			<polygon fill="#F9B31E" points="391.278,280.779 391.197,279.931 391.197,279.891 392.368,279.891 392.489,280.779 			"/>
			<polygon fill="#F9B31E" points="381.102,280.779 381.102,280.901 381.223,282.072 381.547,283.162 382.112,284.131 
				382.798,284.979 383.646,285.665 384.615,286.15 385.665,286.473 386.796,286.594 387.926,286.473 388.976,286.15 
				389.945,285.665 390.793,284.979 391.48,284.131 392.045,283.162 392.368,282.072 392.489,280.901 392.489,280.779 
				391.278,280.779 391.278,280.901 391.197,281.87 390.955,282.758 390.551,283.525 390.026,284.212 389.38,284.777 
				388.613,285.221 387.725,285.503 386.796,285.585 385.867,285.503 384.979,285.221 384.212,284.777 383.565,284.212 
				383.041,283.525 382.637,282.758 382.394,281.87 382.314,280.901 382.314,280.779 			"/>
			<polygon fill="#F9B31E" points="384.777,280.779 384.777,283.121 385.786,283.121 385.786,281.102 386.796,281.102 
				388.007,283.121 388.815,283.121 387.603,281.102 387.886,281.102 388.169,281.022 388.412,280.941 388.613,280.779 
				388.613,280.779 			"/>
		</g>
	</g>
</g>
</svg>
