<?xml version="1.0" encoding="utf-8"?>
<!-- Generator: Adobe Illustrator 17.0.0, SVG Export Plug-In . SVG Version: 6.00 Build 0)  -->
<!DOCTYPE svg PUBLIC "-//W3C//DTD SVG 1.1//EN" "http://www.w3.org/Graphics/SVG/1.1/DTD/svg11.dtd">
<svg version="1.1" id="Слой_1" xmlns="http://www.w3.org/2000/svg" xmlns:xlink="http://www.w3.org/1999/xlink" x="0px" y="0px"
	 width="400px" height="400px" viewBox="0 0 400 400" enable-background="new 0 0 400 400" xml:space="preserve">
<g>
	<path fill-rule="evenodd" clip-rule="evenodd" fill="#0E4595" d="M334.303,209.5l0.163-0.486l0.161-0.324l0.161-0.485l0.161-0.486
		l0.163-0.324l0.161-0.485l0.161-0.486l0.161-0.485l0.161-0.324l0.163-0.486l0.161-0.485l0.161-0.324l0.161-0.485l0.161-0.486
		l0.163-0.485l0.161-0.324l0.161-0.486l0.161-0.485l0.163-0.324l0.161-0.485l0.161-0.486l0.161-0.486l0.161-0.323l0.163-0.486
		l0.161-0.485l0.161-0.324l0.161-0.486l0.161-0.485l0.163-0.486l0.161-0.323l0.161-0.486l0.161-0.485l0.163-0.324l0.161-0.486
		l0.161-0.485l0.161-0.486l0.161-0.324l0.163-0.485l0.161-0.486l0.161-0.323l0.161-0.486l0.161-0.486l0.163-0.485l0.161-0.324
		l0.161-0.485l0.161-0.486l0.161-0.485l0.163-0.324l0.161-0.486l0.161-0.485l0.161-0.324l0.161-0.485l0.163-0.486l0.161-0.486
		l0.161-0.323l0.161-0.486l0.163-0.485l0.161-0.324l0.161-0.485l0.161-0.486l0.161-0.486l0.163-0.323l0.161-0.486l0.161-0.485
		l0.161-0.324l0.163-0.486l0.161-0.485l0.161-0.486l0.161-0.324l0.161-0.485l0.163-0.486l0.161-0.485l0.161-0.324l0.161-0.485
		l0.161-0.486l0.163-0.324l0.161-0.485l0.161-0.486l0.161-0.485l0.161-0.486l0.163-0.485l0.161-0.324l0.161-0.486l0.161-0.485
		l0.163-0.486l0.161-0.324l0.161-0.485l0.161-0.485l0.161-0.486l0.163-0.324l0.161-0.485l0.161-0.486l0.161-0.485l0.161-0.324
		l0.163-0.486l0.161-0.485l0.161-0.324l0.161-0.486l0.163-0.485l0.161-0.486l0.161-0.485l0.161-0.324l0.161-0.485l0.163-0.486v0.971
		l0.161,0.647l0.161,0.809l0.161,0.809l0.161,0.809l0.163,0.809l0.161,0.809l0.161,0.809l0.161,0.809l0.163,0.809l0.161,0.809
		l0.161,0.809l0.161,0.809l0.161,0.809l0.163,0.809l0.161,0.647l0.161,0.809l0.161,0.809l0.161,0.809l0.163,0.809l0.161,0.809
		l0.161,0.647l0.161,0.809l0.161,0.809l0.163,0.809l0.161,0.809l0.161,0.647l0.161,0.809l0.163,0.809l0.161,0.809l0.161,0.809
		l0.161,0.809l0.161,0.647l0.163,0.809l0.161,0.809l0.161,0.809l0.161,0.809l0.161,0.809l0.163,0.647l0.161,0.809l0.161,0.809
		l0.161,0.809l0.163,0.647l0.161,0.809l0.161,0.809l0.161,0.809l0.161,0.809l0.163,0.809l0.161,0.809l0.161,0.647l0.161,0.809
		l0.161,0.809l0.163,0.809l0.161,0.809l0.161,0.809l0.161,0.647l0.161,0.809l0.163,0.809l0.161,0.809l-26.398-0.004L334.303,209.5
		L334.303,209.5z M344.498,129.403l-0.97,0.162l-0.811,0.161l-0.646,0.162l-0.486,0.162l-0.486,0.162l-0.484,0.162l-0.486,0.162
		l-0.323,0.162l-0.325,0.161l-0.323,0.162l-0.325,0.162l-0.323,0.162l-0.323,0.162l-0.163,0.161l-0.323,0.162l-0.161,0.161
		l-0.325,0.162l-0.161,0.162l-0.161,0.162l-0.325,0.162l-0.161,0.161l-0.161,0.162l-0.161,0.161l-0.161,0.162l-0.163,0.162
		l-0.161,0.162l-0.161,0.162l-0.161,0.161l-0.161,0.162l-0.163,0.162l-0.161,0.162l-0.161,0.162l-0.161,0.162l-0.163,0.323
		l-0.161,0.162l-0.161,0.162l-0.161,0.324l-0.161,0.162l-0.163,0.323l-0.161,0.162l-0.161,0.324l-0.161,0.162l-0.161,0.324
		l-0.163,0.323l-0.161,0.324l-0.161,0.323l-0.161,0.324l-0.161,0.324l-0.163,0.324l-0.161,0.324l-0.161,0.485l-0.161,0.324
		l-0.163,0.485l-0.161,0.324l-0.161,0.324l-0.161,0.485l-0.161,0.324l-0.163,0.324l-0.161,0.485l-0.161,0.324l-0.161,0.485
		l-0.161,0.324l-0.163,0.324l-0.161,0.485l-0.161,0.324l-0.161,0.485l-0.163,0.324l-0.161,0.324l-0.161,0.485l-0.161,0.324
		l-0.161,0.486l-0.163,0.323l-0.161,0.324l-0.161,0.486l-0.161,0.323l-0.161,0.486l-0.163,0.324l-0.161,0.323l-0.161,0.486
		l-0.161,0.324l-0.163,0.323l-0.161,0.486l-0.161,0.323l-0.161,0.486l-0.161,0.324l-0.163,0.323l-0.161,0.486l-0.161,0.324
		l-0.161,0.485l-0.161,0.324l-0.163,0.324l-0.161,0.485l-0.161,0.324l-0.161,0.486l-0.161,0.323l-0.163,0.324l-0.161,0.486
		l-0.161,0.323l-0.161,0.324l-0.163,0.485l-0.161,0.324l-0.161,0.486l-0.161,0.323l-0.161,0.324l-0.163,0.486l-0.161,0.323
		l-0.161,0.486l-0.161,0.324l-0.161,0.323l-0.163,0.486l-0.161,0.324l-0.161,0.485l-0.161,0.324l-0.163,0.324l-0.161,0.485
		l-0.161,0.324l-0.161,0.323l-0.161,0.486l-0.163,0.324l-0.161,0.485l-0.161,0.324l-0.161,0.324l-0.161,0.485l-0.163,0.324
		l-0.161,0.485l-0.161,0.324l-0.161,0.324l-0.161,0.485l-0.163,0.324l-0.161,0.486l-0.161,0.323l-0.161,0.324l-0.163,0.485
		l-0.161,0.324l-0.161,0.486l-0.161,0.323l-0.161,0.324l-0.163,0.486l-0.161,0.323l-0.161,0.324l-0.161,0.486l-0.161,0.323
		l-0.163,0.486l-0.161,0.324l-0.161,0.323l-0.161,0.486l-0.163,0.324l-0.161,0.485l-0.161,0.324l-0.161,0.323l-0.161,0.486
		l-0.163,0.324l-0.161,0.485l-0.161,0.324l-0.161,0.324l-0.161,0.485l-0.163,0.324l-0.161,0.324l-0.161,0.485l-0.161,0.324
		l-0.161,0.486l-0.163,0.323l-0.161,0.324l-0.161,0.486l-0.161,0.323l-0.163,0.486l-0.161,0.323l-0.161,0.324l-0.161,0.486
		l-0.161,0.323l-0.163,0.486l-0.161,0.324l-0.161,0.323l-0.161,0.486l-0.161,0.324l-0.163,0.323l-0.161,0.486l-0.161,0.324
		l-0.161,0.485l-0.163,0.324l-0.161,0.485l-0.161,0.324l-0.161,0.324l-0.161,0.485l-0.163,0.324l-0.161,0.324l-0.161,0.485
		l-0.161,0.324l-0.163,0.485l-0.161,0.324l-0.161,0.324l-0.161,0.485l-0.161,0.324l-0.163,0.486l-0.161,0.323l-0.161,0.324
		l-0.161,0.486l-0.161,0.323l-0.163,0.486l-0.161,0.323l-0.161,0.324l-0.161,0.486l-0.163,0.323l-0.161,0.324l-0.161,0.486
		l-0.161,0.323l-0.161,0.486l-0.161,0.324l-0.163,0.323l-0.161,0.486l-0.161,0.324l-0.161,0.485l-0.163,0.324l-0.161,0.324
		l-0.161,0.485l-0.161,0.324l-0.161,0.323l-0.163,0.486l-0.161,0.324l-0.161,0.485l-0.161,0.324l-0.161,0.324l-0.163,0.485
		l-0.161,0.324l-0.161,0.486l-0.161,0.323l-0.163,0.324l-0.161,0.486l-0.161,0.323l-0.161,0.486l-0.161,0.324l-0.163,0.323
		l-0.161,0.486l-0.161,0.323l-0.161,0.486l-0.161,0.324l-0.163,0.323l-0.161,0.486l-0.161,0.324l-0.161,0.323l-0.161,0.486
		l-0.163,0.324l-0.161,0.485l-0.161,0.324l-0.161,0.324l-0.163,0.485l-0.161,0.324l-0.161,0.485l-0.161,0.324l-0.161,0.324
		l-0.163,0.485l-0.161,0.324l-0.161,0.485l-0.161,0.324l-0.161,0.324l-0.163,0.485l-0.161,0.324l-0.161,0.486l-0.161,0.323
		l-0.163,0.324l-0.161,0.485l-0.161,0.324l-0.161,0.324l-0.161,0.486l-0.163,0.323l-0.161,0.486l-0.161,0.323l-0.161,0.324
		l-0.161,0.485l-0.163,0.324l-0.161,0.485l-0.161,0.325l-0.161,0.323l-0.163,0.486l-0.161,0.323l-0.161,0.486l-0.161,0.323
		l-0.161,0.325l-0.163,0.484l-0.161,0.325l-0.161,0.323l-0.161,0.486l-0.161,0.323l-0.163,0.486l-0.161,0.323l-0.161,0.325
		l-0.161,0.484l-0.163,0.325l-0.161,0.485l-0.161,0.324l-0.161,0.323l-0.161,0.486l-0.163,0.323l-0.161,0.325l-0.161,0.485
		l-0.161,0.324l-0.161,0.485l-0.163,0.324l-0.161,0.323l-0.161,0.486l-0.161,0.323l-0.163,0.486l-0.161,0.324l-0.161,0.324
		l-0.161,0.485l-0.161,0.324l-0.163,0.485l-0.161,0.324l-0.161,0.324l-0.161,0.485l-0.161,0.324l-0.163,0.485l-0.161,0.324
		l-0.161,0.324l-0.161,0.485l-0.161,0.324l-0.163,0.485l-0.161,0.324l-0.161,0.324l-0.161,0.485l-0.161,0.324l-0.163,0.324
		l-0.161,0.485l-0.161,0.324l-0.161,0.486l-0.163,0.323l-0.161,0.325l-0.161,0.484l-0.161,0.325l-0.161,0.484l-0.163,0.325
		l-0.161,0.323l-0.161,0.486l-0.161,0.323l-0.161,0.486l-0.163,0.323l-0.161,0.325l-0.161,0.484l-0.161,0.325l-0.163,0.323
		l-0.161,0.486l-0.161,0.323l-0.161,0.486l-0.161,0.323l-0.163,0.325l-0.161,0.484l-0.161,0.325v0.486h34.143l0.161-0.163
		l0.161-0.484l0.161-0.486l0.163-0.486l0.161-0.323l0.161-0.486l0.161-0.484l0.163-0.486l0.161-0.486l0.161-0.323l0.161-0.486
		l0.161-0.484l0.163-0.486l0.161-0.486l0.161-0.323l0.161-0.486l0.161-0.484l0.163-0.486l0.161-0.323l0.161-0.486l0.161-0.486
		l0.161-0.485l0.163-0.324l0.161-0.485l0.161-0.485l0.161-0.486l0.163-0.485l0.161-0.324l0.161-0.485l0.161-0.485l0.161-0.486
		l0.163-0.323l0.161-0.486l0.161-0.485l0.161-0.485l0.161-0.324l0.163-0.485l0.161-0.486l0.161-0.485l0.161-0.324l0.163-0.485
		l0.161-0.485v-0.325l41.262,0.163l0.161,0.809l0.161,0.647l0.161,0.81l0.163,0.809l0.161,0.647l0.161,0.81l0.161,0.809l0.161,0.647
		l0.163,0.809l0.161,0.81l0.161,0.809l0.161,0.809l0.161,0.647l0.163,0.809l0.161,0.809l0.161,0.809l0.161,0.647l0.163,0.97
		l0.161,0.648l0.161,0.809l0.161,0.809l0.161,0.809l0.163,0.648l0.161,0.809l0.161,0.325H400v-1.134l-0.163-0.809l-0.161-0.809
		l-0.161-0.809l-0.161-0.647l-0.163-0.809l-0.161-0.809l-0.161-0.647l-0.161-0.809l-0.161-0.809l-0.163-0.809l-0.161-0.81
		l-0.161-0.647l-0.161-0.809l-0.161-0.81l-0.163-0.809l-0.161-0.809l-0.161-0.647l-0.161-0.81l-0.161-0.809l-0.163-0.809
		l-0.161-0.809l-0.161-0.647l-0.161-0.809l-0.163-0.809l-0.161-0.809l-0.161-0.647l-0.161-0.809l-0.161-0.809l-0.163-0.81
		l-0.161-0.809l-0.161-0.647l-0.161-0.809l-0.161-0.81l-0.163-0.809l-0.161-0.809l-0.161-0.647l-0.161-0.809l-0.163-0.809
		l-0.161-0.647l-0.161-0.809l-0.161-0.809l-0.161-0.809l-0.163-0.809l-0.161-0.809l-0.161-0.647l-0.161-0.809l-0.161-0.809
		l-0.163-0.809l-0.161-0.809l-0.161-0.648l-0.161-0.809l-0.161-0.809l-0.163-0.647l-0.161-0.809l-0.161-0.809l-0.161-0.809
		l-0.163-0.809l-0.161-0.647l-0.161-0.809l-0.161-0.809l-0.161-0.809l-0.163-0.809l-0.161-0.647l-0.161-0.809l-0.161-0.809
		l-0.161-0.809l-0.163-0.809l-0.161-0.648l-0.161-0.809l-0.161-0.809l-0.163-0.809l-0.161-0.647l-0.161-0.809l-0.161-0.809
		l-0.161-0.809l-0.163-0.809l-0.161-0.647l-0.161-0.809l-0.161-0.809l-0.161-0.809l-0.163-0.809l-0.161-0.647l-0.161-0.809
		l-0.161-0.809l-0.163-0.648l-0.161-0.809l-0.161-0.809l-0.161-0.809l-0.161-0.809l-0.163-0.647l-0.161-0.809l-0.161-0.809
		l-0.161-0.809l-0.161-0.809l-0.163-0.647l-0.161-0.809l-0.161-0.809l-0.161-0.809l-0.161-0.809l-0.163-0.647l-0.161-0.809
		l-0.161-0.809l-0.161-0.809l-0.163-0.647l-0.161-0.809l-0.161-0.809l-0.161-0.809l-0.161-0.809l-0.163-0.647l-0.161-0.809
		l-0.161-0.809l-0.161-0.809l-0.161-0.809l-0.163-0.647l-0.161-0.809l-0.161-0.809l-0.161-0.648l-0.163-0.809l-0.161-0.809
		l-0.161-0.809l-0.161-0.809l-0.161-0.809l-0.163-0.647l-0.161-0.809l-0.161-0.809l-0.161-0.809l-0.161-0.809l-0.163-0.647
		l-0.161-0.809l-0.161-0.809l-0.161-0.647l-0.161-0.809l-0.163-0.809l-0.161-0.809l-0.161-0.809l-0.161-0.647l-0.163-0.809
		l-0.161-0.809l-0.161-0.809l-0.161-0.809l-0.161-0.647l-0.163-0.809l-0.161-0.809l-0.161-0.809l-0.161-0.809l-0.161-0.809
		l-0.163-0.647l-0.161-0.809l-0.161-0.809l-0.161-0.647l-0.163-0.809l-0.161-0.809l-0.161-0.809l-0.161-0.809l-0.161-0.647
		l-0.163-0.809l-0.161-0.809l-0.161-0.809l-0.161-0.809l-0.161-0.647l-0.163-0.647h-27.831L344.498,129.403z"/>
	<polygon fill-rule="evenodd" clip-rule="evenodd" fill="#0E4595" points="254.531,127.137 252.751,127.299 251.294,127.461 
		250,127.623 249.03,127.785 248.058,127.946 247.087,128.108 246.278,128.27 245.469,128.432 244.66,128.593 244.013,128.755 
		243.204,128.917 242.556,129.079 241.909,129.241 241.424,129.403 240.777,129.565 240.129,129.726 239.643,129.888 
		239.158,130.05 238.673,130.212 238.188,130.374 237.54,130.536 237.055,130.697 236.731,130.859 236.246,131.021 235.76,131.183 
		235.437,131.345 234.951,131.506 234.466,131.668 234.142,131.83 233.657,131.992 233.333,132.153 233.009,132.315 
		232.524,132.477 232.201,132.639 231.877,132.801 231.554,132.963 231.229,133.124 230.906,133.286 230.42,133.448 230.097,133.61 
		229.773,133.772 229.611,133.933 229.288,134.095 228.964,134.257 228.641,134.419 228.317,134.581 227.993,134.743 
		227.67,134.905 227.507,135.066 227.185,135.228 226.861,135.39 226.698,135.552 226.376,135.714 226.052,135.875 225.89,136.037 
		225.567,136.199 225.243,136.361 225.081,136.522 224.919,136.684 224.595,136.846 224.433,137.008 224.11,137.17 223.949,137.331 
		223.624,137.493 223.463,137.655 223.139,137.817 222.977,137.979 222.815,138.14 222.492,138.303 222.33,138.464 222.168,138.626 
		221.845,138.788 221.683,138.95 221.521,139.112 221.359,139.273 221.036,139.435 220.874,139.597 220.712,139.759 220.55,139.921 
		220.388,140.082 220.064,140.244 219.902,140.406 219.741,140.568 219.579,140.73 219.418,140.891 219.256,141.053 
		219.093,141.215 218.932,141.377 218.77,141.538 218.609,141.7 218.284,141.862 218.123,142.024 217.961,142.186 217.799,142.348 
		217.638,142.51 217.475,142.671 217.314,142.995 217.152,143.157 216.99,143.319 216.828,143.481 216.666,143.642 216.505,143.804 
		216.344,143.966 216.181,144.128 216.019,144.289 215.857,144.451 215.696,144.613 215.534,144.937 215.372,145.098 215.21,145.26 
		215.048,145.422 214.887,145.746 214.725,145.907 214.562,146.069 214.401,146.231 214.24,146.555 214.078,146.717 
		213.916,146.878 213.754,147.202 213.592,147.364 213.431,147.526 213.268,147.85 213.107,148.011 212.945,148.335 
		212.783,148.497 212.622,148.82 212.459,148.982 212.298,149.306 212.136,149.629 211.974,149.791 211.813,150.115 211.65,150.438 
		211.488,150.762 211.327,150.924 211.165,151.248 211.004,151.571 210.841,151.895 210.679,152.218 210.518,152.542 
		210.356,152.866 210.194,153.189 210.032,153.513 209.87,153.998 209.709,154.322 209.547,154.645 209.385,155.131 
		209.223,155.455 209.061,155.94 208.9,156.426 208.738,156.911 208.576,157.396 208.414,157.882 208.252,158.367 208.091,159.014 
		207.929,159.662 207.767,160.309 207.605,161.118 207.443,161.927 207.282,162.898 207.12,164.031 206.957,165.649 
		206.957,171.312 207.12,172.768 207.282,173.739 207.443,174.548 207.605,175.195 207.767,175.843 207.929,176.49 208.091,176.976 
		208.252,177.461 208.414,177.946 208.576,178.432 208.738,178.755 208.9,179.241 209.061,179.564 209.223,180.05 209.385,180.373 
		209.547,180.697 209.709,181.021 209.87,181.345 210.032,181.668 210.194,181.992 210.356,182.315 210.518,182.477 
		210.679,182.801 210.841,183.124 211.004,183.286 211.165,183.61 211.327,183.933 211.488,184.095 211.65,184.419 211.813,184.58 
		211.974,184.904 212.136,185.066 212.298,185.228 212.459,185.552 212.622,185.713 212.783,185.875 212.945,186.199 
		213.107,186.361 213.268,186.523 213.431,186.846 213.592,187.008 213.754,187.17 213.916,187.331 214.078,187.493 214.24,187.817 
		214.401,187.979 214.562,188.14 214.725,188.302 214.887,188.464 215.048,188.626 215.21,188.788 215.372,188.95 215.534,189.111 
		215.696,189.273 215.857,189.435 216.019,189.597 216.181,189.759 216.344,189.921 216.505,190.083 216.666,190.244 
		216.828,190.406 216.99,190.568 217.152,190.73 217.314,190.891 217.475,191.053 217.638,191.215 217.799,191.377 217.961,191.539 
		218.123,191.7 218.284,191.862 218.609,192.024 218.77,192.186 218.932,192.348 219.093,192.509 219.256,192.671 219.418,192.833 
		219.741,192.995 219.902,193.157 220.064,193.318 220.227,193.48 220.55,193.642 220.712,193.804 220.874,193.966 221.036,194.128 
		221.359,194.29 221.521,194.451 221.683,194.613 222.006,194.775 222.168,194.937 222.33,195.099 222.654,195.26 222.815,195.422 
		223.139,195.584 223.301,195.746 223.624,195.907 223.786,196.069 223.949,196.231 224.272,196.393 224.433,196.555 
		224.758,196.716 224.919,196.878 225.243,197.04 225.567,197.202 225.728,197.364 226.052,197.525 226.213,197.687 
		226.537,197.849 226.861,198.011 227.023,198.173 227.346,198.335 227.507,198.497 227.832,198.658 228.155,198.82 
		228.479,198.982 228.641,199.144 228.964,199.306 229.288,199.468 229.611,199.629 229.773,199.791 230.097,199.953 
		230.42,200.115 230.744,200.276 231.068,200.438 231.392,200.6 231.554,200.762 231.877,200.924 232.201,201.085 232.524,201.247 
		232.847,201.409 233.172,201.571 233.495,201.733 233.818,201.895 234.142,202.056 234.466,202.218 234.79,202.38 235.113,202.542 
		235.437,202.704 235.76,202.866 236.084,203.027 236.408,203.189 236.731,203.351 237.055,203.513 237.378,203.675 
		237.703,203.837 238.026,203.998 238.349,204.16 238.673,204.322 238.997,204.484 239.321,204.645 239.643,204.807 
		239.806,204.969 240.129,205.131 240.452,205.292 240.777,205.454 241.1,205.616 241.424,205.778 241.586,205.94 241.909,206.102 
		242.233,206.263 242.556,206.425 242.718,206.587 243.042,206.749 243.365,206.911 243.528,207.073 243.851,207.235 
		244.174,207.396 244.337,207.558 244.66,207.72 244.822,207.882 245.146,208.044 245.308,208.205 245.631,208.367 245.792,208.529 
		246.117,208.691 246.278,208.853 246.44,209.014 246.763,209.176 246.926,209.338 247.087,209.5 247.249,209.661 247.573,209.823 
		247.735,209.985 247.896,210.147 248.058,210.309 248.22,210.47 248.382,210.632 248.544,210.794 248.867,210.956 249.03,211.118 
		249.191,211.442 249.353,211.603 249.514,211.765 249.676,211.927 249.839,212.089 250,212.251 250.162,212.574 250.323,212.736 
		250.485,212.898 250.648,213.221 250.809,213.545 250.971,213.707 251.133,214.03 251.294,214.516 251.457,214.84 251.618,215.325 
		251.779,215.972 251.942,216.943 251.942,218.885 251.779,220.018 251.618,220.665 251.457,221.15 251.294,221.474 
		251.133,221.959 250.971,222.284 250.809,222.606 250.648,222.768 250.485,223.092 250.323,223.254 250.162,223.577 250,223.739 
		249.839,223.901 249.676,224.224 249.514,224.387 249.353,224.548 249.191,224.71 249.03,224.872 248.867,225.033 248.705,225.196 
		248.544,225.358 248.22,225.519 248.058,225.681 247.896,225.842 247.735,226.005 247.411,226.167 247.249,226.328 246.926,226.49 
		246.602,226.652 246.44,226.814 246.117,226.976 245.792,227.137 245.469,227.299 245.308,227.461 244.822,227.623 
		244.499,227.785 244.174,227.946 243.851,228.108 243.365,228.27 242.88,228.432 242.395,228.594 241.909,228.755 241.424,228.917 
		240.777,229.079 240.129,229.241 239.482,229.403 238.512,229.564 237.54,229.726 236.246,229.888 233.981,230.05 230.583,230.05 
		226.698,229.888 224.433,229.726 222.977,229.564 221.521,229.403 220.388,229.241 219.418,229.079 218.609,228.917 
		217.799,228.755 216.99,228.594 216.344,228.432 215.534,228.27 215.048,228.108 214.401,227.946 213.754,227.785 213.268,227.623 
		212.783,227.461 212.136,227.299 211.65,227.137 211.165,226.976 210.679,226.814 210.194,226.652 209.87,226.49 209.385,226.328 
		208.9,226.167 208.414,226.005 208.091,225.842 207.605,225.681 207.282,225.519 206.796,225.358 206.311,225.196 205.987,225.033 
		205.664,224.872 205.178,224.71 204.854,224.548 204.369,224.387 204.045,224.224 203.721,224.063 203.236,223.901 
		202.913,223.739 202.589,223.577 202.265,223.415 201.942,223.254 201.456,223.092 201.133,222.93 200.809,222.768 
		200.485,222.606 200.162,222.445 199.838,222.284 199.514,222.121 199.191,221.959 198.867,221.798 198.544,221.636 
		198.058,221.636 197.896,222.121 197.735,223.092 197.573,224.063 197.411,225.033 197.249,226.167 197.087,227.137 
		196.926,228.108 196.764,229.079 196.602,230.212 196.44,231.182 196.278,232.153 196.116,233.125 195.955,234.095 
		195.793,235.229 195.631,236.199 195.469,237.169 195.307,238.141 195.145,239.112 194.984,240.082 194.822,241.215 
		194.66,242.186 194.498,243.157 194.336,244.127 194.175,245.098 194.013,246.069 193.851,247.203 193.689,248.173 
		193.528,249.144 193.528,249.953 194.013,250.114 194.336,250.277 194.66,250.439 195.145,250.6 195.469,250.762 195.955,250.923 
		196.278,251.086 196.764,251.248 197.249,251.409 197.735,251.571 198.058,251.732 198.705,251.895 199.191,252.057 
		199.676,252.218 200.162,252.38 200.647,252.543 201.295,252.704 201.78,252.866 202.427,253.027 203.074,253.189 203.721,253.352 
		204.369,253.513 205.016,253.675 205.664,253.836 206.473,253.998 207.12,254.161 207.929,254.322 208.738,254.484 
		209.547,254.645 210.356,254.808 211.327,254.97 212.298,255.131 213.431,255.293 214.401,255.454 215.534,255.617 
		216.828,255.779 218.284,255.94 219.741,256.102 221.683,256.263 224.11,256.424 236.084,256.424 238.188,256.263 239.968,256.102 
		241.424,255.94 242.556,255.779 243.689,255.617 244.66,255.454 245.469,255.293 246.44,255.131 247.249,254.97 248.058,254.808 
		248.705,254.645 249.514,254.484 250.162,254.322 250.809,254.161 251.457,253.998 252.104,253.836 252.588,253.675 
		253.236,253.513 253.722,253.352 254.207,253.189 254.692,253.027 255.178,252.866 255.664,252.704 256.149,252.543 
		256.634,252.38 257.119,252.218 257.443,252.057 257.928,251.895 258.414,251.732 258.738,251.571 259.223,251.409 
		259.547,251.248 259.871,251.086 260.356,250.923 260.68,250.762 261.003,250.6 261.327,250.439 261.812,250.277 262.136,250.114 
		262.459,249.953 262.784,249.791 263.107,249.63 263.43,249.467 263.754,249.305 264.077,249.144 264.402,248.982 264.563,248.821 
		264.886,248.658 265.21,248.496 265.533,248.335 265.695,248.173 266.019,248.012 266.342,247.849 266.667,247.687 
		266.828,247.526 267.151,247.365 267.314,247.203 267.637,247.04 267.799,246.878 268.123,246.717 268.446,246.556 
		268.608,246.392 268.769,246.231 269.094,246.069 269.255,245.908 269.578,245.747 269.741,245.583 269.903,245.422 
		270.226,245.261 270.389,245.098 270.712,244.937 270.873,244.775 271.035,244.613 271.198,244.452 271.521,244.289 
		271.682,244.127 271.844,243.965 272.007,243.804 272.33,243.643 272.491,243.48 272.653,243.318 272.816,243.157 272.977,242.995 
		273.139,242.833 273.3,242.671 273.625,242.509 273.786,242.348 273.948,242.186 274.109,242.024 274.272,241.862 274.434,241.7 
		274.595,241.539 274.757,241.377 274.918,241.215 275.081,241.053 275.243,240.891 275.404,240.73 275.565,240.568 
		275.727,240.406 275.89,240.244 276.051,240.082 276.213,239.921 276.374,239.597 276.538,239.435 276.699,239.273 
		276.861,239.112 277.022,238.949 277.183,238.787 277.347,238.626 277.508,238.303 277.669,238.141 277.831,237.978 
		277.994,237.817 278.155,237.493 278.317,237.332 278.478,237.169 278.64,237.008 278.803,236.684 278.964,236.522 
		279.126,236.199 279.287,236.037 279.449,235.875 279.612,235.551 279.773,235.39 279.935,235.066 280.096,234.904 
		280.259,234.581 280.421,234.419 280.582,234.095 280.744,233.772 280.905,233.61 281.068,233.286 281.23,232.963 281.391,232.638 
		281.553,232.477 281.714,232.153 281.877,231.83 282.039,231.507 282.2,231.182 282.362,230.859 282.523,230.535 282.686,230.212 
		282.848,229.726 283.009,229.403 283.171,229.079 283.334,228.594 283.495,228.27 283.657,227.785 283.818,227.461 283.98,226.976 
		284.143,226.49 284.304,226.005 284.466,225.519 284.627,225.033 284.789,224.387 284.952,223.739 285.113,223.092 
		285.275,222.445 285.436,221.636 285.599,220.827 285.761,219.856 285.922,218.723 286.084,217.267 286.245,214.192 
		286.245,212.412 286.084,209.823 285.922,208.529 285.761,207.558 285.599,206.749 285.436,206.102 285.275,205.454 
		285.113,204.807 284.952,204.322 284.789,203.837 284.627,203.351 284.466,202.866 284.304,202.38 284.143,202.056 283.98,201.571 
		283.818,201.247 283.657,200.924 283.495,200.6 283.334,200.276 283.171,199.953 283.009,199.629 282.848,199.306 282.686,198.982 
		282.523,198.658 282.362,198.335 282.2,198.173 282.039,197.849 281.877,197.525 281.714,197.364 281.553,197.04 281.391,196.878 
		281.23,196.555 281.068,196.393 280.905,196.069 280.744,195.907 280.582,195.746 280.421,195.422 280.259,195.26 280.096,194.937 
		279.935,194.775 279.773,194.613 279.612,194.451 279.449,194.128 279.287,193.966 279.126,193.804 278.964,193.642 
		278.803,193.48 278.64,193.318 278.478,192.995 278.317,192.833 278.155,192.671 277.994,192.509 277.831,192.348 277.669,192.186 
		277.508,192.024 277.347,191.862 277.183,191.7 277.022,191.539 276.861,191.377 276.699,191.215 276.538,191.053 276.374,190.891 
		276.213,190.73 276.051,190.568 275.89,190.406 275.727,190.244 275.565,190.083 275.404,189.921 275.243,189.759 274.918,189.597 
		274.757,189.435 274.595,189.273 274.434,189.111 274.272,188.95 274.109,188.788 273.948,188.626 273.625,188.464 
		273.463,188.302 273.3,188.14 273.139,187.979 272.816,187.817 272.653,187.655 272.491,187.493 272.33,187.331 272.007,187.17 
		271.844,187.008 271.682,186.846 271.359,186.684 271.198,186.523 270.873,186.361 270.712,186.199 270.55,186.037 
		270.226,185.875 270.064,185.713 269.741,185.552 269.578,185.39 269.255,185.228 269.094,185.066 268.769,184.904 
		268.608,184.742 268.285,184.58 268.123,184.419 267.799,184.257 267.637,184.095 267.314,183.933 267.151,183.772 266.828,183.61 
		266.504,183.448 266.342,183.286 266.019,183.124 265.695,182.962 265.533,182.801 265.21,182.639 264.886,182.477 
		264.563,182.315 264.238,182.154 264.077,181.992 263.754,181.83 263.43,181.668 263.107,181.506 262.784,181.345 262.621,181.183 
		262.298,181.021 261.975,180.859 261.65,180.697 261.327,180.535 261.003,180.373 260.68,180.212 260.356,180.05 260.032,179.888 
		259.708,179.726 259.385,179.564 259.062,179.403 258.738,179.241 258.414,179.079 258.09,178.917 257.767,178.755 
		257.443,178.594 257.119,178.432 256.796,178.27 256.473,178.108 256.149,177.946 255.825,177.785 255.501,177.623 
		255.178,177.461 255.016,177.299 254.692,177.138 254.37,176.976 254.045,176.814 253.722,176.652 253.398,176.49 253.074,176.328 
		252.913,176.166 252.588,176.005 252.266,175.843 251.942,175.681 251.618,175.519 251.457,175.357 251.133,175.195 
		250.809,175.034 250.485,174.872 250.323,174.71 250,174.548 249.676,174.387 249.514,174.225 249.191,174.063 248.867,173.901 
		248.705,173.739 248.382,173.578 248.22,173.416 247.896,173.254 247.573,173.092 247.411,172.93 247.087,172.768 246.926,172.607 
		246.763,172.445 246.44,172.283 246.278,172.121 245.955,171.959 245.792,171.797 245.631,171.635 245.469,171.474 
		245.146,171.312 244.983,171.15 244.822,170.988 244.66,170.827 244.337,170.665 244.174,170.503 244.013,170.341 243.851,170.179 
		243.689,170.018 243.528,169.856 243.365,169.694 243.204,169.532 243.042,169.37 242.88,169.047 242.718,168.885 242.556,168.723 
		242.395,168.4 242.233,168.238 242.071,167.914 241.909,167.752 241.747,167.428 241.586,167.105 241.424,166.781 241.262,166.296 
		241.1,165.811 240.939,164.84 240.939,163.221 241.1,162.412 241.262,161.765 241.424,161.28 241.586,160.956 241.747,160.633 
		241.909,160.309 242.071,160.147 242.233,159.823 242.395,159.5 242.556,159.338 242.718,159.176 242.88,159.014 243.042,158.691 
		243.204,158.529 243.365,158.367 243.528,158.205 243.689,158.043 243.851,157.882 244.174,157.72 244.337,157.558 
		244.499,157.396 244.66,157.234 244.983,157.073 245.146,156.911 245.469,156.749 245.631,156.587 245.955,156.426 
		246.278,156.264 246.44,156.102 246.763,155.94 247.087,155.778 247.411,155.616 247.896,155.455 248.22,155.293 248.544,155.131 
		249.03,154.969 249.514,154.807 250,154.645 250.648,154.483 251.133,154.322 251.942,154.16 252.588,153.998 253.56,153.836 
		254.854,153.674 256.473,153.513 263.916,153.513 266.019,153.674 267.476,153.836 268.769,153.998 269.903,154.16 
		270.712,154.322 271.521,154.483 272.33,154.645 272.977,154.807 273.786,154.969 274.434,155.131 275.081,155.293 
		275.565,155.455 276.213,155.616 276.699,155.778 277.347,155.94 277.831,156.102 278.317,156.264 278.803,156.426 
		279.287,156.587 279.612,156.749 280.096,156.911 280.582,157.073 281.068,157.234 281.391,157.396 281.877,157.558 282.2,157.72 
		282.686,157.882 283.009,158.043 283.334,158.205 283.657,158.367 283.98,158.529 284.304,158.691 284.789,158.852 
		285.113,159.014 285.436,159.176 285.761,159.338 286.084,159.5 286.57,159.5 286.731,158.529 286.893,157.558 287.054,156.587 
		287.217,155.455 287.379,154.483 287.54,153.513 287.701,152.542 287.865,151.571 288.026,150.6 288.188,149.467 288.349,148.497 
		288.51,147.526 288.674,146.555 288.835,145.584 288.996,144.613 289.158,143.481 289.319,142.51 289.483,141.377 289.644,140.406 
		289.805,139.435 289.967,138.464 290.128,137.493 290.292,136.522 290.453,135.39 290.614,134.419 290.776,133.448 
		290.937,132.477 290.937,132.153 290.614,131.992 290.128,131.83 289.644,131.668 289.319,131.506 288.835,131.345 
		288.349,131.183 287.865,131.021 287.379,130.859 286.893,130.697 286.408,130.536 285.922,130.374 285.275,130.212 
		284.789,130.05 284.304,129.888 283.657,129.726 283.009,129.565 282.362,129.403 281.714,129.241 281.068,129.079 
		280.421,128.917 279.773,128.755 278.964,128.593 278.155,128.432 277.347,128.27 276.374,128.108 275.565,127.946 
		274.434,127.785 273.463,127.623 272.168,127.461 270.712,127.299 268.932,127.137 266.667,126.976 256.796,126.976 	"/>
	<path fill-rule="evenodd" clip-rule="evenodd" fill="#0E4595" d="M113.592,129.403l-0.162,0.485l-0.162,0.324l-0.162,0.486
		l-0.161,0.485l-0.162,0.324l-0.161,0.485l-0.162,0.486l-0.162,0.323l-0.162,0.486l-0.162,0.486l-0.161,0.485l-0.162,0.324
		l-0.162,0.485l-0.162,0.486l-0.162,0.324l-0.162,0.485l-0.162,0.486l-0.161,0.324l-0.162,0.485l-0.162,0.485l-0.162,0.324
		l-0.162,0.486l-0.162,0.486l-0.162,0.485l-0.161,0.324l-0.162,0.485l-0.162,0.486l-0.162,0.323l-0.162,0.486l-0.161,0.486
		l-0.162,0.485l-0.161,0.324l-0.162,0.485l-0.162,0.486l-0.162,0.324l-0.162,0.485l-0.161,0.486l-0.162,0.323l-0.162,0.486
		l-0.162,0.485l-0.162,0.324l-0.162,0.486l-0.162,0.485l-0.161,0.486l-0.162,0.324l-0.161,0.485l-0.162,0.486l-0.162,0.323
		l-0.162,0.486l-0.162,0.486l-0.161,0.323l-0.162,0.486l-0.162,0.485l-0.162,0.486l-0.162,0.323l-0.162,0.486l-0.162,0.486
		l-0.161,0.323l-0.162,0.486l-0.161,0.485l-0.162,0.324l-0.162,0.486l-0.162,0.485l-0.162,0.486l-0.161,0.324l-0.162,0.485
		l-0.162,0.485l-0.162,0.324l-0.162,0.486l-0.161,0.485l-0.162,0.324l-0.161,0.486l-0.162,0.485l-0.162,0.324l-0.162,0.485
		l-0.162,0.486l-0.162,0.486l-0.161,0.323l-0.162,0.486l-0.162,0.485l-0.162,0.324l-0.162,0.485l-0.162,0.486L100,166.134
		l-0.162,0.323l-0.162,0.486l-0.162,0.485l-0.162,0.324l-0.162,0.486l-0.162,0.485l-0.161,0.324l-0.162,0.486l-0.162,0.485
		l-0.162,0.324l-0.162,0.485l-0.162,0.486l-0.162,0.485l-0.161,0.324l-0.162,0.486l-0.161,0.485l-0.162,0.324l-0.162,0.485
		l-0.161,0.486l-0.162,0.324l-0.161,0.485l-0.162,0.486l-0.162,0.324l-0.162,0.485l-0.162,0.486l-0.161,0.485l-0.162,0.324
		l-0.161,0.485l-0.162,0.486l-0.162,0.324l-0.162,0.485l-0.162,0.486l-0.162,0.485l-0.161,0.324l-0.162,0.486l-0.162,0.485
		l-0.162,0.324l-0.162,0.485l-0.162,0.486l-0.161,0.324l-0.162,0.485l-0.162,0.486l-0.162,0.323l-0.162,0.486l-0.162,0.485
		l-0.162,0.486l-0.161,0.324l-0.162,0.485l-0.162,0.486l-0.162,0.324l-0.162,0.485l-0.162,0.486l-0.162,0.323l-0.161,0.486
		l-0.162,0.486l-0.162,0.323l-0.162,0.486l-0.162,0.485l-0.161,0.486l-0.162,0.323l-0.161,0.486l-0.162,0.486l-0.162,0.323
		l-0.162,0.486l-0.162,0.485l-0.161,0.486l-0.162,0.324l-0.161,0.485l-0.162,0.486l-0.162,0.324l-0.162,0.485l-0.162,0.485
		l-0.161,0.324l-0.162,0.486l-0.161,0.485l-0.162,0.324l-0.162,0.486l-0.162,0.485l-0.162,0.486l-0.161,0.323l-0.162,0.486
		l-0.162,0.486l-0.162,0.323l-0.162,0.486l-0.162,0.485l-0.162,0.324l-0.161,0.485l-0.162,0.486l-0.162,0.486l-0.162,0.323
		l-0.162,0.486l-0.162,0.485l-0.162,0.324l-0.161,0.486l-0.162,0.485l-0.162,0.324l-0.162,0.486l-0.162,0.485l-0.161,0.486
		l-0.162,0.323l-0.161,0.486l-0.162,0.485l-0.162,0.324l-0.162,0.486l-0.162,0.485l-0.162,0.324l-0.162,0.485l-0.161,0.486
		l-0.162,0.486l-0.162,0.323l-0.162-0.809l-0.162-0.809l-0.161-0.809l-0.162-0.809l-0.161-0.809l-0.162-0.809l-0.162-0.809
		l-0.162-0.809l-0.162-0.971l-0.161-0.809l-0.162-0.809l-0.162-0.809l-0.162-0.809l-0.162-0.809l-0.162-0.971l-0.162-0.809
		l-0.161-0.809l-0.162-0.809l-0.161-0.809l-0.162-0.809l-0.162-0.161c-0.18-0.208-3.206-7.377-3.723-8.413
		c-1.406-2.82-2.706-5.187-4.259-7.877c-2.969-5.142-6.568-9.452-10.261-13.848c-6.339-7.546-17.563-16.871-26.579-21.641v0.323
		l0.162,0.647l0.161,0.485l0.162,0.648l0.162,0.647l0.162,0.647l0.162,0.647l0.162,0.486l0.162,0.647l0.161,0.647l0.162,0.647
		l0.162,0.485l0.162,0.647l0.162,0.647l0.161,0.647l0.162,0.647l0.162,0.485l0.162,0.647l0.162,0.647l0.162,0.647l0.162,0.647
		l0.161,0.485l0.162,0.647l0.161,0.647l0.162,0.647l0.162,0.485l0.162,0.648l0.162,0.647l0.161,0.647l0.162,0.647l0.161,0.486
		l0.162,0.647l0.162,0.647l0.161,0.647l0.162,0.647l0.161,0.486l0.162,0.647l0.162,0.647l0.162,0.647l0.162,0.485l0.162,0.647
		l0.162,0.647l0.161,0.647l0.162,0.486l0.162,0.647l0.162,0.647l0.162,0.647l0.162,0.648l0.162,0.485l0.161,0.648l0.162,0.647
		l0.162,0.647l0.162,0.647l0.162,0.485l0.161,0.647l0.162,0.647l0.162,0.647l0.162,0.485l0.162,0.647l0.162,0.647l0.162,0.647
		l0.161,0.647l0.162,0.485l0.161,0.647l0.162,0.647l0.162,0.647l0.162,0.647l0.162,0.485l0.161,0.647l0.162,0.647l0.162,0.648
		l0.162,0.485l0.162,0.647l0.161,0.647l0.162,0.647l0.161,0.648l0.162,0.485l0.162,0.647l0.162,0.647l0.162,0.647l0.162,0.647
		l0.162,0.486l0.161,0.647l0.162,0.647l0.162,0.647l0.162,0.647l0.162,0.486l0.161,0.647l0.162,0.647l0.161,0.486l0.162,0.647
		l0.162,0.647l0.162,0.647l0.162,0.647l0.162,0.485l0.161,0.647l0.162,0.648l0.162,0.647l0.162,0.647L50,206.425l0.162,0.647
		l0.161,0.647l0.162,0.647l0.161,0.485l0.162,0.647l0.162,0.647l0.162,0.647l0.162,0.647l0.161,0.485l0.162,0.648l0.162,0.647
		l0.162,0.647l0.162,0.647l0.161,0.485l0.162,0.648l0.161,0.647l0.162,0.647l0.162,0.648l0.162,0.485l0.162,0.648l0.162,0.647
		l0.162,0.647l0.161,0.484l0.162,0.647l0.162,0.648l0.162,0.647l0.162,0.647l0.161,0.484l0.162,0.647l0.161,0.647l0.162,0.648
		l0.162,0.647l0.162,0.485l0.162,0.647l0.162,0.647l0.162,0.648l0.161,0.485l0.162,0.648l0.162,0.647l0.162,0.647l0.162,0.486
		l0.161,0.647l0.162,0.648l0.161,0.647l0.162,0.647l0.162,0.486l0.162,0.647l0.162,0.647l0.161,0.647l0.162,0.486l0.162,0.648
		l0.162,0.647l0.162,0.647l0.162,0.648l0.162,0.485l0.161,0.648l0.162,0.647l0.162,0.647l0.162,0.648l0.162,0.485l0.162,0.647
		l0.162,0.648l0.161,0.647l0.162,0.648l0.162,0.484l0.162,0.647l0.162,0.648l0.161,0.647l0.162,0.484l0.162,0.647l0.162,0.647
		l0.162,0.648l0.162,0.647l0.162,0.484l0.162,0.647l0.162,0.647l0.161,0.648l0.162,0.647l0.162,0.323h26.537l7.929-0.161
		l0.162-0.161l0.161-0.486l0.162-0.323l0.161-0.486l0.162-0.323l0.162-0.325l0.162-0.484l0.162-0.325l0.162-0.484l0.162-0.325
		l0.161-0.484l0.162-0.325l0.162-0.486l0.162-0.323l0.162-0.323l0.162-0.486l0.162-0.323l0.161-0.486l0.162-0.323l0.162-0.486
		l0.162-0.325l0.162-0.484l0.162-0.325l0.161-0.485l0.162-0.324l0.162-0.323l0.162-0.486l0.162-0.323l0.162-0.486l0.161-0.324
		l0.162-0.485l0.161-0.324l0.162-0.485l0.162-0.324l0.162-0.485l0.162-0.324l0.161-0.324l0.162-0.485l0.162-0.324l0.162-0.486
		l0.162-0.323l0.161-0.486l0.162-0.323l0.161-0.486l0.162-0.323l0.162-0.486l0.162-0.323l0.162-0.486l0.162-0.323l0.162-0.325
		l0.161-0.485l0.162-0.324l0.162-0.485l0.162-0.324l0.162-0.485l0.161-0.324l0.162-0.485l0.161-0.324l0.162-0.324l0.162-0.485
		l0.162-0.324l0.162-0.485l0.162-0.324l0.162-0.485l0.161-0.324l0.162-0.485l0.162-0.325l0.162-0.484l0.162-0.325l0.161-0.323
		l0.162-0.486l0.161-0.323l0.162-0.486l0.162-0.323l0.162-0.486l0.162-0.324l0.161-0.485l0.162-0.324l0.162-0.485l0.162-0.324
		l0.162-0.485l0.162-0.324l0.162-0.324l0.161-0.485l0.162-0.324l0.162-0.486l0.162-0.323l0.162-0.486l0.162-0.323l0.162-0.486
		l0.161-0.323l0.162-0.325l0.162-0.484l0.162-0.324l0.162-0.486l0.161-0.323l0.162-0.486l0.161-0.323l0.162-0.486l0.162-0.324
		l0.162-0.485l0.162-0.324l0.162-0.324l0.162-0.485l0.161-0.324l0.162-0.485l0.162-0.324l0.162-0.486l0.162-0.323l0.161-0.486
		l0.162-0.324l0.161-0.485l0.162-0.324l0.162-0.485l0.162-0.324l0.162-0.324l0.161-0.485l0.162-0.324l0.161-0.486l0.162-0.323
		l0.162-0.486l0.162-0.324l0.162-0.485l0.161-0.324l0.162-0.324l0.162-0.485l0.162-0.324l0.162-0.485l0.162-0.324l0.162-0.485
		l0.161-0.324l0.162-0.486l0.162-0.323l0.162-0.486l0.162-0.324l0.162-0.323l0.161-0.486l0.162-0.324l0.162-0.485l0.162-0.324
		l0.162-0.486l0.162-0.323l0.162-0.486l0.162-0.324l0.161-0.485l0.162-0.324l0.162-0.485l0.162-0.324l0.162-0.324l0.161-0.485
		l0.162-0.324l0.161-0.485l0.162-0.324l0.162-0.486l0.162-0.323l0.162-0.486l0.161-0.324l0.162-0.485l0.161-0.324l0.162-0.324
		l0.162-0.485l0.162-0.324l0.162-0.485l0.161-0.324l0.162-0.486l0.162-0.323l0.162-0.486l0.162-0.324l0.162-0.323l0.162-0.486
		l0.161-0.324l0.162-0.485l0.162-0.324l0.162-0.485l0.162-0.324l0.162-0.486l0.162-0.323l0.161-0.486l0.162-0.323l0.162-0.324
		l0.162-0.486l0.162-0.323l0.162-0.486l0.162-0.324l0.161-0.485l0.162-0.324l0.162-0.486l0.162-0.323l0.162-0.486l0.161-0.324
		l0.162-0.485l0.162-0.324l0.162-0.324l0.162-0.485l0.162-0.324l0.162-0.485l0.161-0.324l0.162-0.485l0.161-0.324l0.162-0.486
		l0.162-0.323l0.162-0.324l0.162-0.486l0.161-0.323l0.162-0.486l0.162-0.324l0.162-0.485l0.162-0.324l0.161-0.486l0.162-0.323
		l0.161-0.486l0.162-0.323l0.162-0.486l0.162-0.324l0.162-0.323l0.162-0.486l0.162-0.324l0.161-0.485l0.162-0.324l0.162-0.485
		l0.162-0.324l0.162-0.486l0.162-0.323l0.162-0.486l0.161-0.324l0.162-0.323l0.162-0.486l0.162-0.323l0.162-0.486l0.161-0.324
		l0.162-0.485l0.161-0.324l0.162-0.486l0.162-0.323l0.162-0.324l0.162-0.486l0.161-0.323l0.162-0.486l0.161-0.324l0.162-0.485
		l0.162-0.324l0.162-0.485l0.162-0.324l0.161-0.485l0.162-0.324l0.162-0.324l0.162-0.485l0.162-0.324l0.162-0.486l0.162-0.323
		l0.161-0.486l0.162-0.324l0.162-0.485l0.162-0.324l0.162-0.486l0.162-0.323l0.162-0.486l0.161-0.324l0.162-0.323l0.162-0.486
		l0.162-0.323l0.162-0.486l0.161-0.324l0.162-0.485l0.161-0.324l0.162-0.485l0.162-0.324l0.162-0.324l0.162-0.485l0.161-0.324
		l0.162-0.486l0.161-0.323l0.162-0.486l0.162-0.324l0.162-0.485l0.162-0.324l0.161-0.485l0.162-0.324l0.161-0.324l0.162-0.485
		l0.162-0.324l0.162-0.486l0.162-0.323l0.161-0.486l0.162-0.324l0.162-0.485l0.162-0.324l0.162-0.485l0.162-0.324l0.162-0.485
		l0.161-0.324l0.162-0.324l0.162-0.485l0.162-0.324l0.162-0.486l0.162-0.323l0.162-0.486l0.161-0.324l0.162-0.485l0.162-0.324
		l0.162-0.324l0.162-0.485l0.162-0.324l0.162-0.486l0.161-0.323l0.162-0.486l0.162-0.324l0.162-0.485l0.162-0.324l0.161-0.485
		l0.162-0.324l0.161-0.324l0.162-0.485l0.162-0.324l0.162-0.485v-0.324h-34.466L113.592,129.403z"/>
	<polygon fill-rule="evenodd" clip-rule="evenodd" fill="#0E4595" points="161.003,129.403 160.841,130.374 160.679,131.345 
		160.518,132.315 160.356,133.286 160.194,134.419 160.032,135.39 159.871,136.361 159.709,137.331 159.547,138.303 
		159.385,139.273 159.223,140.406 159.062,141.377 158.9,142.348 158.738,143.319 158.576,144.451 158.414,145.422 158.253,146.393 
		158.091,147.364 157.929,148.497 157.767,149.467 157.605,150.438 157.443,151.409 157.281,152.38 157.12,153.351 156.958,154.483 
		156.796,155.455 156.634,156.426 156.472,157.396 156.31,158.367 156.149,159.338 155.987,160.471 155.825,161.442 
		155.663,162.412 155.502,163.383 155.34,164.354 155.178,165.325 155.016,166.458 154.854,167.428 154.693,168.4 154.531,169.37 
		154.369,170.503 154.207,171.474 154.046,172.445 153.883,173.416 153.722,174.548 153.56,175.519 153.398,176.49 153.236,177.461 
		153.074,178.432 152.913,179.403 152.751,180.535 152.589,181.506 152.427,182.477 152.265,183.448 152.103,184.419 
		151.942,185.39 151.78,186.523 151.618,187.493 151.456,188.464 151.294,189.435 151.133,190.406 150.971,191.377 150.809,192.509 
		150.647,193.48 150.486,194.451 150.324,195.422 150.162,196.393 150,197.525 149.838,198.497 149.676,199.468 149.515,200.6 
		149.353,201.571 149.191,202.542 149.029,203.513 148.867,204.484 148.706,205.454 148.543,206.587 148.382,207.558 
		148.22,208.529 148.058,209.5 147.896,210.47 147.734,211.442 147.573,212.574 147.411,213.545 147.249,214.516 147.087,215.487 
		146.926,216.458 146.764,217.429 146.602,218.562 146.44,219.532 146.278,220.502 146.117,221.474 145.955,222.445 
		145.793,223.577 145.631,224.548 145.469,225.519 145.308,226.652 145.146,227.623 144.984,228.594 144.822,229.564 
		144.66,230.535 144.498,231.507 144.336,232.638 144.175,233.61 144.013,234.581 143.851,235.551 143.689,236.522 143.527,237.493 
		143.365,238.626 143.204,239.597 143.042,240.568 142.88,241.539 142.718,242.509 142.557,243.48 142.395,244.613 142.233,245.583 
		142.071,246.556 141.91,247.526 141.748,248.496 141.586,249.63 141.424,250.6 141.262,251.571 141.101,252.704 140.938,253.675 
		140.938,254.645 173.463,254.645 173.624,253.998 173.786,253.027 173.948,252.057 174.11,251.086 174.272,250.114 
		174.433,249.144 174.596,248.012 174.757,247.04 174.919,246.069 175.081,245.098 175.243,244.127 175.405,243.157 
		175.566,242.024 175.728,241.053 175.89,240.082 176.052,239.112 176.214,238.141 176.375,237.169 176.537,236.037 
		176.699,235.066 176.861,234.095 177.023,233.125 177.184,232.153 177.346,231.021 177.508,230.05 177.67,229.079 177.832,227.946 
		177.993,226.976 178.155,226.005 178.317,225.033 178.479,224.063 178.641,223.092 178.803,221.959 178.964,220.988 
		179.126,220.018 179.288,219.047 179.45,218.076 179.612,217.105 179.773,215.972 179.936,215.001 180.097,214.03 180.259,213.06 
		180.421,212.089 180.583,211.118 180.744,209.985 180.906,209.014 181.068,208.044 181.23,207.073 181.391,206.102 
		181.553,204.969 181.715,203.998 181.877,203.027 182.039,201.895 182.2,200.924 182.362,199.953 182.524,198.982 182.686,198.011 
		182.848,197.04 183.01,195.907 183.171,194.937 183.333,193.966 183.495,192.995 183.657,192.024 183.819,191.053 183.981,190.083 
		184.143,188.95 184.304,187.979 184.466,187.008 184.628,186.037 184.79,185.066 184.952,184.095 185.113,182.962 185.275,181.992 
		185.437,181.021 185.599,180.05 185.76,179.079 185.922,177.946 186.084,176.976 186.246,176.005 186.408,174.872 186.569,173.901 
		186.731,172.93 186.893,171.959 187.055,170.988 187.217,169.856 187.378,168.885 187.54,167.914 187.702,166.943 187.864,165.972 
		188.026,165.002 188.188,164.031 188.35,162.898 188.511,161.927 188.673,160.956 188.835,159.985 188.997,159.014 
		189.159,158.043 189.32,156.911 189.482,155.94 189.644,154.969 189.806,153.998 189.968,153.027 190.129,151.895 190.291,150.924 
		190.453,149.953 190.615,148.82 190.776,147.85 190.938,146.878 191.1,145.907 191.262,144.937 191.424,143.804 191.586,142.833 
		191.748,141.862 191.909,140.891 192.071,139.921 192.233,138.95 192.395,137.979 192.557,136.846 192.719,135.875 192.88,134.905 
		193.042,133.933 193.204,132.963 193.366,131.992 193.528,130.859 193.689,129.888 193.689,129.079 161.165,129.079 	"/>
	<path fill-rule="evenodd" clip-rule="evenodd" fill="#F2AE14" d="M0.324,129.241l-0.162,0.971L0,131.183v0.809l0.647,0.162
		l0.485,0.162l0.647,0.162l0.647,0.162l0.485,0.161l0.647,0.162l0.647,0.161l0.486,0.162l0.485,0.162l0.647,0.162l0.485,0.162
		l0.486,0.161l0.647,0.162l0.486,0.162l0.485,0.162l0.486,0.162l0.485,0.162l0.486,0.162l0.485,0.161l0.486,0.162l0.486,0.162
		l0.485,0.162l0.324,0.162l0.485,0.162l0.486,0.162l0.486,0.161l0.485,0.162l0.324,0.162l0.485,0.162l0.486,0.162l0.323,0.162
		l0.486,0.162l0.324,0.161l0.485,0.162l0.486,0.162l0.324,0.162l0.323,0.162l0.486,0.161l0.324,0.162l0.485,0.161l0.324,0.162
		l0.324,0.162l0.485,0.162l0.324,0.162l0.324,0.161l0.485,0.162l0.324,0.161l0.323,0.162l0.324,0.162l0.486,0.162l0.323,0.162
		l0.324,0.161l0.324,0.162l0.323,0.162l0.324,0.162l0.324,0.162l0.324,0.162l0.485,0.162l0.324,0.161l0.324,0.162l0.323,0.162
		l0.324,0.162l0.323,0.162l0.324,0.162l0.324,0.162l0.324,0.161l0.324,0.162l0.161,0.162l0.324,0.162l0.324,0.162l0.323,0.162
		l0.324,0.162l0.324,0.161l0.323,0.162l0.324,0.162l0.162,0.162l0.324,0.162l0.323,0.162l0.324,0.162l0.162,0.161l0.323,0.162
		l0.324,0.162l0.324,0.162l0.162,0.162h0.323c9.017,4.77,20.24,14.095,26.579,21.641c3.694,4.396,7.293,8.706,10.261,13.848
		c1.553,2.69,2.853,5.057,4.259,7.877c0.517,1.037,3.542,8.206,3.723,8.413v-0.647l-0.162-0.809l-0.162-0.809l-0.161-0.809
		l-0.162-0.809l-0.162-0.809l-0.162-0.809l-0.162-0.971l-0.161-0.809l-0.162-0.809l-0.161-0.809l-0.162-0.809l-0.162-0.809
		l-0.162-0.809l-0.162-0.809l-0.162-0.809l-0.162-0.809l-0.161-0.809l-0.162-0.809l-0.162-0.809l-0.162-0.971l-0.162-0.809
		l-0.161-0.809l-0.162-0.809l-0.162-0.809l-0.162-0.809l-0.162-0.809l-0.162-0.809l-0.162-0.809l-0.162-0.971l-0.161-0.647
		l-0.162-0.809l-0.162-0.809l-0.162-0.971l-0.162-0.809l-0.162-0.809l-0.161-0.809l-0.162-0.809l-0.161-0.809l-0.162-0.809
		l-0.162-0.809l-0.162-0.809l-0.162-0.971l-0.161-0.647l-0.162-0.809l-0.162-0.971l-0.162-0.809l-0.162-0.809l-0.161-0.809
		l-0.162-0.809l-0.161-0.809l-0.162-0.809l-0.162-0.809l-0.162-0.809l-0.162-0.971l-0.162-0.647l-0.162-0.809l-0.161-0.971
		l-0.162-0.648l-0.162-0.971l-0.162-0.809l-0.162-0.809l-0.161-0.809l-0.162-0.809l-0.162-0.809l-0.162-0.809l-0.162-0.809
		l-0.162-0.971l-0.162-0.647l-0.162-0.971l-0.161-0.648l-0.162-0.485l-0.162-0.485l-0.162-0.486l-0.162-0.486l-0.162-0.323
		l-0.161-0.324l-0.162-0.324l-0.162-0.323l-0.162-0.324l-0.162-0.324l-0.162-0.162l-0.162-0.323l-0.161-0.162l-0.162-0.324
		l-0.162-0.162l-0.162-0.162l-0.162-0.323l-0.161-0.162l-0.162-0.162l-0.161-0.162l-0.162-0.162l-0.162-0.161l-0.162-0.162
		l-0.162-0.161l-0.161-0.162l-0.162-0.162l-0.323-0.162l-0.162-0.162l-0.162-0.161l-0.323-0.162l-0.162-0.161l-0.324-0.162
		l-0.324-0.162l-0.162-0.162l-0.324-0.162l-0.323-0.161l-0.324-0.162l-0.485-0.162l-0.486-0.162l-0.324-0.162l-0.485-0.162
		l-0.647-0.162l-0.647-0.161l-0.809-0.162l-1.295-0.162l-1.618-0.162H0.485L0.324,129.241z"/>
</g>
</svg>
